<svg xmlns="http://www.w3.org/2000/svg" viewBox="0 0 32 32" fill="#1D63ED">
  <path d="M28.8 13.6c-.4-.3-1.3-.4-2-.3-.2-1-.7-1.8-1.5-2.4l-.5-.3-.3.5c-.4.6-.5 1.7-.2 2.4-.3.2-.9.4-1.7.4H1.1c-.2 1.1.1 2.6.8 3.6.8 1 2 1.7 3.5 2 .7.1 1.4.2 2 .2 1.9 0 3.7-.4 5-1.3.9-.6 1.6-1.4 2-2.4h1.2c.9 0 1.7-.6 2-1.5h.5c.3 0 .6-.1.8-.2.5-.2.8-.5 1-.9.2.1.4.2.6.2.9 0 1.6-.7 1.6-1.6 0 0 0-.1 0-.1.4-.1.8-.3 1-.6.5-.6.5-1.6-.3-1.8z"/>
  <rect x="4" y="10" width="3" height="3" rx=".5"/>
  <rect x="8.5" y="10" width="3" height="3" rx=".5"/>
  <rect x="13" y="10" width="3" height="3" rx=".5"/>
  <rect x="4" y="5.5" width="3" height="3" rx=".5"/>
  <rect x="8.5" y="5.5" width="3" height="3" rx=".5"/>
  <rect x="13" y="5.5" width="3" height="3" rx=".5"/>
  <rect x="8.5" y="1" width="3" height="3" rx=".5"/>
</svg>
