<?xml version="1.0" encoding="UTF-8"?>
<svg xmlns="http://www.w3.org/2000/svg" xmlns:xlink="http://www.w3.org/1999/xlink" x="0" y="0" width="28px" height="32px" viewBox="0 0 24 27" version="1.1" fill="none" xml:space="preserve">
<g id="surface1" fill="currentColor">
<path style=" stroke:none;fill-rule:nonzero;fill:rgb(0%,0%,0%);fill-opacity:1;" d="M 23.511719 6.695312 C 23.511719 6.59375 23.460938 6.503906 23.371094 6.457031 L 12.03125 -0.00390625 C 11.945312 -0.0546875 11.839844 -0.0546875 11.75 -0.00390625 L 0.414062 6.460938 C 0.324219 6.507812 0.269531 6.597656 0.269531 6.699219 L 0.269531 19.625 C 0.269531 19.722656 0.324219 19.816406 0.414062 19.863281 L 11.75 26.324219 C 11.835938 26.375 11.945312 26.375 12.03125 26.324219 L 23.371094 19.863281 C 23.460938 19.816406 23.511719 19.722656 23.511719 19.625 Z M 18.777344 16.765625 C 18.644531 16.691406 18.472656 16.734375 18.394531 16.867188 C 18.320312 17 18.363281 17.167969 18.5 17.246094 L 18.894531 17.46875 L 11.890625 21.457031 L 4.886719 17.46875 L 5.308594 17.226562 C 5.441406 17.152344 5.484375 16.988281 5.410156 16.859375 C 5.335938 16.730469 5.171875 16.6875 5.039062 16.753906 L 4.613281 16.996094 L 4.613281 9.007812 L 11.613281 5.019531 L 11.613281 5.445312 C 11.613281 5.597656 11.738281 5.722656 11.890625 5.722656 C 12.046875 5.722656 12.171875 5.597656 12.171875 5.445312 L 12.171875 5.019531 L 19.171875 9.007812 L 19.171875 16.992188 Z M 11.890625 0.554688 L 22.6875 6.695312 L 19.460938 8.53125 L 12.03125 4.304688 C 11.953125 4.257812 11.859375 4.257812 11.78125 4.304688 L 4.328125 8.53125 L 2.390625 7.429688 L 1.109375 6.695312 Z M 0.828125 7.164062 L 1.816406 7.726562 L 4.050781 8.996094 L 4.050781 17.445312 L 4.046875 17.445312 C 4.050781 17.492188 4.0625 17.53125 4.082031 17.570312 C 4.105469 17.613281 4.140625 17.648438 4.183594 17.671875 L 11.613281 21.9375 L 11.613281 25.609375 L 0.816406 19.46875 Z M 22.953125 19.46875 L 12.160156 25.609375 L 12.160156 21.933594 L 19.589844 17.707031 C 19.636719 17.6875 19.679688 17.652344 19.707031 17.605469 C 19.726562 17.566406 19.738281 17.527344 19.742188 17.484375 L 19.742188 9.035156 L 19.863281 8.964844 L 22.964844 7.199219 Z M 22.953125 19.46875 "/>
<path style=" stroke:none;fill-rule:nonzero;fill:rgb(0%,0%,0%);fill-opacity:1;" d="M 18.035156 9.550781 L 11.984375 6.105469 C 11.925781 6.074219 11.855469 6.074219 11.796875 6.105469 L 5.75 9.550781 C 5.691406 9.585938 5.65625 9.648438 5.65625 9.714844 L 5.65625 16.609375 C 5.65625 16.671875 5.691406 16.734375 5.75 16.765625 L 11.796875 20.210938 C 11.824219 20.230469 11.859375 20.238281 11.890625 20.238281 C 11.925781 20.238281 11.957031 20.230469 11.984375 20.210938 L 18.035156 16.765625 C 18.089844 16.734375 18.125 16.671875 18.125 16.609375 L 18.125 9.710938 C 18.125 9.644531 18.089844 9.585938 18.035156 9.550781 Z M 15.492188 10.894531 L 15.007812 11.171875 L 15.007812 8.234375 L 17.566406 9.703125 Z M 12.078125 16.402344 L 12.078125 13.371094 L 14.125 14.535156 L 14.738281 14.882812 L 12.410156 16.210938 Z M 11.984375 12.902344 L 11.984375 9.871094 L 14.632812 11.382812 Z M 11.796875 12.902344 L 9.144531 11.390625 L 11.796875 9.878906 Z M 12.171875 13.21875 L 14.101562 12.117188 L 14.820312 11.691406 L 14.820312 14.714844 Z M 14.820312 11.28125 L 12.078125 9.714844 L 14.820312 8.148438 Z M 8.957031 11.28125 L 8.957031 8.148438 L 11.703125 9.714844 Z M 11.613281 13.21875 L 11.546875 13.257812 L 8.941406 14.726562 L 8.941406 11.691406 Z M 9.65625 14.535156 L 11.695312 13.371094 L 11.695312 16.394531 L 11.179688 16.097656 L 9.050781 14.886719 Z M 17.753906 13.160156 L 16.925781 13.632812 L 15.007812 14.734375 L 15.007812 11.59375 Z M 8.773438 11.171875 L 6.214844 9.703125 L 8.773438 8.234375 Z M 8.773438 14.722656 L 6.539062 13.4375 L 6.027344 13.160156 L 8.773438 11.59375 Z M 17.753906 12.945312 L 15.191406 11.476562 L 17.753906 10.007812 Z M 11.984375 9.550781 L 11.984375 6.546875 L 14.636719 8.0625 Z M 11.796875 9.550781 L 9.144531 8.042969 L 11.796875 6.546875 Z M 7.851562 11.070312 L 8.597656 11.488281 L 6.039062 12.957031 L 6.039062 10.03125 Z M 6.027344 13.371094 L 8.066406 14.535156 L 8.679688 14.882812 L 6.027344 16.394531 Z M 16.199219 14.261719 L 17.753906 13.375 L 17.753906 16.398438 L 15.101562 14.886719 Z M 6.121094 16.554688 L 8.773438 15.042969 L 8.773438 18.066406 Z M 8.957031 15.042969 L 11.707031 16.605469 L 8.957031 18.167969 Z M 9.144531 18.277344 L 11.707031 16.808594 L 11.707031 19.734375 Z M 12.078125 19.746094 L 12.078125 16.832031 L 14.636719 18.300781 Z M 14.820312 18.179688 L 12.078125 16.609375 L 14.820312 15.046875 Z M 15.007812 15.054688 L 17.660156 16.566406 L 15.007812 18.078125 Z M 15.007812 15.054688 "/>
</g>
</svg>
