<?xml version="1.0" encoding="UTF-8"?>
<svg version="1.1" xmlns="http://www.w3.org/2000/svg" width="1024" height="1024">
<path d="M0 0 C2.20629883 1.0847168 2.20629883 1.0847168 4.45703125 2.44921875 C5.30942383 2.9601709 6.16181641 3.47112305 7.04003906 3.99755859 C8.41240723 4.83407959 8.41240723 4.83407959 9.8125 5.6875 C11.80295095 6.88223454 13.79385179 8.07621982 15.78515625 9.26953125 C16.8127002 9.88779785 17.84024414 10.50606445 18.89892578 11.14306641 C23.82612807 14.09349158 28.78674797 16.98575896 33.75 19.875 C34.74104736 20.4527417 35.73209473 21.0304834 36.75317383 21.62573242 C45.24849576 26.57355728 53.76520053 31.48405494 62.28369141 36.3918457 C74.53747904 43.45528815 86.74804011 50.59233632 98.95898438 57.72949219 C110.28852891 64.35021812 121.62976603 70.94935227 133 77.5 C146.37720613 85.20690957 159.71325828 92.9832889 173.03955078 100.77783203 C183.54151078 106.92004495 194.05010145 113.04653562 204.625 119.0625 C212.60763938 123.60457973 220.52499081 128.24835451 228.42285156 132.93603516 C236.63921183 137.80504275 244.90846252 142.57944315 253.1862793 147.34301758 C260.47217597 151.53721037 267.74215389 155.75746776 275 160 C286.54715454 166.74725038 298.12902212 173.43339424 309.71777344 180.10888672 C316.23099567 183.86159569 322.74145355 187.61910015 329.25170898 191.37695312 C334.65332761 194.49441007 340.0569039 197.60836357 345.46484375 200.71484375 C357.31589204 207.52798978 369.11654376 214.41662277 380.86224365 221.40924072 C387.38569793 225.29174632 393.92334798 229.13115899 400.5625 232.8125 C406.44008141 236.08035969 412.23879502 239.46838127 418 242.9375 C418.79736572 243.41098877 419.59473145 243.88447754 420.41625977 244.37231445 C421.14514404 244.81534912 421.87402832 245.25838379 422.625 245.71484375 C423.27726563 246.10792725 423.92953125 246.50101074 424.6015625 246.90600586 C425.06304688 247.26702393 425.52453125 247.62804199 426 248 C426 248.66 426 249.32 426 250 C425.3922876 250.34144043 424.7845752 250.68288086 424.15844727 251.03466797 C412.76118224 257.44341547 401.39713812 263.89509052 390.14453125 270.5546875 C385.75884888 273.14874088 381.34980193 275.70155886 376.9375 278.25 C370.7947094 281.79806174 364.66265812 285.3636992 358.53979492 288.94604492 C348.76513144 294.66336141 338.96154388 300.32739866 329.125 305.9375 C308.67408168 317.60178527 288.29466336 329.38697962 267.96777344 341.26611328 C264.98181071 343.01062688 261.99498713 344.75365622 259.0078125 346.49609375 C257.51942871 347.36427734 257.51942871 347.36427734 256.00097656 348.25 C254.01093189 349.41048163 252.0206995 350.5706414 250.03027344 351.73046875 C244.85047839 354.74960758 239.6756022 357.77675715 234.5078125 360.81640625 C233.43917969 361.44353516 232.37054687 362.07066406 231.26953125 362.71679688 C229.24195561 363.90689562 227.2158025 365.09942289 225.19140625 366.29492188 C223.35190062 367.37329687 221.50215873 368.43444059 219.64160156 369.47607422 C216.97934346 370.96290601 216.97934346 370.96290601 214.50683594 372.73095703 C211.9352649 374.36904061 209.99658798 375.41163792 207 376 C202.47911835 374.74542578 198.88725474 372.32498732 195 369.75 C193.86478146 369.04011362 192.7268592 368.33453466 191.58642578 367.63305664 C189.21903896 366.17231937 186.86434192 364.69375046 184.51660156 363.20166016 C179.07526071 359.76607998 173.46683988 356.61958741 167.875 353.4375 C165.7047133 352.18796068 163.5354371 350.93666459 161.3671875 349.68359375 C160.30725586 349.07112793 159.24732422 348.45866211 158.15527344 347.82763672 C152.10557419 344.32345469 146.07057598 340.79411823 140.03417969 337.26708984 C128.38340815 330.46412377 116.69096256 323.73357814 105 317 C91.3258782 309.12419276 77.66263026 301.23144154 64.03857422 293.26928711 C56.70687521 288.98755083 49.35717019 284.73779993 42 280.5 C33.65201541 275.69148156 25.31756816 270.86094317 17 266 C5.45277514 259.25286886 -6.12902119 252.5666063 -17.71777344 245.89111328 C-23.14659942 242.76319852 -28.57319281 239.63141552 -34 236.5 C-36.16665583 235.24998121 -38.3333225 233.99998122 -40.5 232.75 C-44.83333333 230.25 -49.16666667 227.75 -53.5 225.25 C-54.57266113 224.63116943 -55.64532227 224.01233887 -56.75048828 223.37475586 C-58.91557071 222.12564482 -61.08060982 220.87645871 -63.24560547 219.62719727 C-68.68615706 216.48797691 -74.12747216 213.35009437 -79.5703125 210.21484375 C-91.0544882 203.59777108 -102.52196894 196.95366023 -113.96582031 190.26708984 C-125.61659185 183.46412377 -137.30903744 176.73357814 -149 170 C-163.68316193 161.54302157 -178.35515681 153.06844664 -192.98046875 144.51171875 C-197.24457815 142.01873538 -201.51965357 139.54567039 -205.80078125 137.08203125 C-206.91114746 136.44080322 -208.02151367 135.7995752 -209.16552734 135.13891602 C-211.30794394 133.90209485 -213.45271932 132.66934847 -215.60009766 131.44116211 C-216.55577637 130.88823486 -217.51145508 130.33530762 -218.49609375 129.765625 C-219.76731079 129.03520996 -219.76731079 129.03520996 -221.06420898 128.29003906 C-223 127 -223 127 -224 125 C-223.40276123 124.66379639 -222.80552246 124.32759277 -222.19018555 123.98120117 C-211.93164985 118.20311208 -201.67745278 112.42004479 -191.5 106.5 C-184.52998457 102.44597356 -177.52467609 98.45852894 -170.5 94.5 C-161.16463814 89.23745253 -151.8773173 83.89813613 -142.61132812 78.51464844 C-137.55866876 75.58395484 -132.49753247 72.66793832 -127.4375 69.75 C-126.33962158 69.11666748 -125.24174316 68.48333496 -124.1105957 67.83081055 C-118.54210421 64.61867104 -112.97277529 61.40799268 -107.40234375 58.19921875 C-105.22650171 56.94541799 -103.05072018 55.69151222 -100.875 54.4375 C-99.8037085 53.82011963 -98.73241699 53.20273926 -97.62866211 52.56665039 C-90.23583622 48.30170896 -82.86506758 44.00014971 -75.5 39.6875 C-68.00721648 35.30229188 -60.47395813 31.01114697 -52.86743164 26.8269043 C-46.50260203 23.31135889 -40.21630974 19.66660508 -33.9375 16 C-32.92002686 15.40759521 -31.90255371 14.81519043 -30.85424805 14.20483398 C-26.16202351 11.46546897 -21.49047166 8.70203958 -16.8671875 5.84765625 C-16.09125244 5.37392578 -15.31531738 4.90019531 -14.51586914 4.41210938 C-13.09068156 3.53915238 -11.67259443 2.6544487 -10.26342773 1.75585938 C-6.30655245 -0.65598906 -4.41923517 -1.29552483 0 0 Z " fill="#000000" transform="translate(390,22)"/>
<path d="M0 0 C1.76250622 0.95990968 3.52483726 1.92014102 5.28709412 2.88050842 C6.26851096 3.4152028 7.24992781 3.94989717 8.26108456 4.50079441 C11.28665178 6.15690515 14.29124764 7.84593888 17.28515625 9.55859375 C18.37908691 10.18386963 19.47301758 10.80914551 20.60009766 11.45336914 C21.74269043 12.10813232 22.8852832 12.76289551 24.0625 13.4375 C25.2921337 14.1412318 26.52178909 14.84492568 27.75146484 15.54858398 C39.10805123 22.05033466 50.44308717 28.58937519 61.7734375 35.13671875 C65.03524007 37.0203505 68.29861844 38.90122321 71.5625 40.78125 C83.04959095 47.39909168 94.51945745 54.04487232 105.96582031 60.73291016 C116.52620282 66.89919054 127.12126766 73.0049595 137.71777344 79.10888672 C143.14659942 82.23680148 148.57319281 85.36858448 154 88.5 C156.16665583 89.75001879 158.3333225 91.00001878 160.5 92.25 C164.83333333 94.75 169.16666667 97.25 173.5 99.75 C174.57266113 100.36883057 175.64532227 100.98766113 176.75048828 101.62524414 C178.91557071 102.87435518 181.08060982 104.12354129 183.24560547 105.37280273 C188.68615706 108.51202309 194.12747216 111.64990563 199.5703125 114.78515625 C210.16757247 120.89129035 220.75379394 127.01490158 231.3125 133.1875 C239.49524272 137.97029584 247.70312123 142.70553403 255.93798828 147.39794922 C266.20516145 153.25033415 276.43578715 159.16591151 286.66943359 165.07666016 C291.03269266 167.59636071 295.39702414 170.11419977 299.76147461 172.63183594 C301.92252059 173.87844912 304.08349051 175.12519416 306.24438477 176.37207031 C311.68532697 179.51156308 317.12706102 182.6496688 322.5703125 185.78515625 C334.0544882 192.40222892 345.52196894 199.04633977 356.96582031 205.73291016 C367.50863213 211.88893089 378.08610505 217.98445756 388.66503906 224.078125 C392.08753546 226.05044503 395.50883773 228.02482613 398.9296875 230 C400.07195801 230.65943604 401.21422852 231.31887207 402.39111328 231.99829102 C404.54323389 233.24078949 406.69526077 234.48345031 408.84716797 235.72631836 C416.55223568 240.17337519 424.27562136 244.58606935 432 249 C432 332.82 432 416.64 432 503 C424.59458938 498.96068512 417.21575242 494.90172154 409.875 490.75 C408.86928955 490.1813623 407.8635791 489.61272461 406.82739258 489.02685547 C400.41887945 485.39415686 394.046009 481.70815878 387.70898438 477.95239258 C381.12973873 474.05821986 374.50232752 470.24911806 367.875 466.4375 C360.48208861 462.18315306 353.11296947 457.90382603 345.81958008 453.48095703 C338.66464589 449.16200743 331.4044161 445.02371838 324.16137695 440.85498047 C310.38996864 432.92744789 296.66769729 424.91648286 282.96484375 416.87109375 C280.51828691 415.43479745 278.07167447 413.99859592 275.625 412.5625 C275.01345062 412.20351624 274.40190125 411.84453247 273.77182007 411.47467041 C264.14915195 405.82781245 254.49545835 400.23687359 244.82446289 394.6730957 C235.91946715 389.54429052 227.05148231 384.35408351 218.19009399 379.15048218 C210.12547577 374.41488571 202.05071131 369.69802756 193.95166016 365.02148438 C187.76901445 361.45018414 181.60233052 357.85195138 175.4375 354.25 C167.03900391 349.34303617 158.61964377 344.47387996 150.1875 339.625 C141.2512631 334.48343861 132.36094291 329.2702048 123.5 324 C110.40258667 316.21150795 97.21324905 308.58982994 84 301 C70.74276109 293.37889659 57.50292635 285.73490139 44.35351562 277.92895508 C35.94533692 272.94635901 27.48022224 268.06468533 19.00390625 263.19921875 C17.97652344 262.60882813 16.94914062 262.0184375 15.890625 261.41015625 C14.99375977 260.89590088 14.09689453 260.38164551 13.17285156 259.85180664 C11.60229004 258.93516235 11.60229004 258.93516235 10 258 C9.1898263 257.6265594 8.37965261 257.25311881 7.54492819 256.86836183 C0.56899331 253.36199489 0.56899331 253.36199489 -0.92178845 249.79352212 C-1.2642872 247.05589788 -1.28596596 244.4696319 -1.20254517 241.71157837 C-1.21108941 240.67739663 -1.21963366 239.64321488 -1.22843683 238.5776943 C-1.24491081 235.11204513 -1.18992597 231.65123785 -1.13525391 228.18603516 C-1.13243316 225.70242426 -1.13401652 223.21880502 -1.13967896 220.73519897 C-1.14195611 215.38824834 -1.11360139 210.04280489 -1.05730057 204.6962471 C-0.97595549 196.96634308 -0.94997915 189.23702876 -0.93742065 181.50674312 C-0.91554547 168.96460976 -0.84902784 156.42312754 -0.75439453 143.88134766 C-0.66257458 131.69974013 -0.59180545 119.51830959 -0.54931641 107.33642578 C-0.54668917 106.58527924 -0.54406194 105.83413269 -0.54135509 105.06022413 C-0.52830451 101.29186309 -0.51566748 97.52350081 -0.50323606 93.75513768 C-0.39960357 62.50295165 -0.22275955 31.2515748 0 0 Z M45 77 C42.81943564 80.35191299 42.74675567 83.15028497 42.73930359 87.09725952 C42.73221878 88.34779617 42.72513397 89.59833282 42.71783447 90.88676453 C42.72012824 92.27005041 42.72263793 93.65333595 42.7253418 95.03662109 C42.7209939 96.49544028 42.7158105 97.95425718 42.70985413 99.41307068 C42.69646008 103.37387988 42.69588598 107.33459368 42.69841743 111.29542112 C42.69948702 114.60303599 42.69460398 117.91063155 42.689812 121.21824229 C42.67871508 129.02278819 42.67828023 136.82728596 42.68432617 144.63183594 C42.69036492 152.67981975 42.67805794 160.72762869 42.6567561 168.77558267 C42.63913394 175.68781313 42.63313977 182.59998796 42.63639385 189.51224005 C42.63820612 193.63943779 42.6355763 197.76651082 42.62167931 201.8936882 C42.6090958 205.77612172 42.61104987 209.65828298 42.62409019 213.54071236 C42.62645453 214.9636971 42.62372637 216.38670103 42.61546707 217.80966377 C42.6049867 219.7560084 42.61491009 221.70243069 42.6257782 223.64877319 C42.62561046 224.7368244 42.62544271 225.8248756 42.62526989 226.94589806 C43.06600135 230.53792007 44.12088323 232.91948377 46 236 C48.99682132 237.99788088 49.94085146 238.35935228 53.375 238.5 C54.12523437 238.5515625 54.87546875 238.603125 55.6484375 238.65625 C58.53454006 237.85082603 60.07712854 236.52595298 61.92845154 234.19259644 C64.3993431 229.13667202 63.67039056 223.1546728 63.61523438 217.64453125 C63.61873791 216.17556111 63.62439911 214.70659478 63.63204956 213.23764038 C63.64627418 209.25812782 63.62925938 205.27930817 63.60576439 201.29986191 C63.5856264 197.13065629 63.59153648 192.96147863 63.59387207 188.79223633 C63.59381853 181.79138797 63.57408075 174.79080978 63.54199219 167.79003906 C63.50510071 159.70222559 63.49631697 151.61476594 63.5032897 143.52687931 C63.50960032 135.73884884 63.49883007 127.95093939 63.47932434 120.16293335 C63.47116086 116.85206372 63.46843886 113.54125604 63.47001648 110.2303772 C63.47089702 106.32981112 63.4566339 102.42958 63.43078995 98.52910233 C63.42364291 97.09968312 63.42153748 95.67022824 63.42490768 94.24079514 C63.42863713 92.28575136 63.41199536 90.33070066 63.39440918 88.37573242 C63.39068047 87.28290451 63.38695175 86.1900766 63.38311005 85.06413269 C62.93735617 81.4989716 61.82074018 79.08010916 60 76 C55.11938998 72.29746826 49.58448571 73.43428889 45 77 Z M99.5625 107.875 C96.93224595 111.45214551 96.86981395 113.55548646 96.85282898 117.97737122 C96.84567368 119.25184616 96.83851837 120.52632111 96.83114624 121.8394165 C96.82830585 123.25988745 96.82559413 124.68035866 96.82299805 126.10083008 C96.81673447 127.59053201 96.81008777 129.08023238 96.80308533 130.56993103 C96.78566625 134.6237326 96.77512118 138.67752236 96.7668798 142.73135209 C96.76173173 145.26314579 96.75565593 147.79493581 96.74936867 150.32672691 C96.73031435 158.24553178 96.71608353 166.1643273 96.7077567 174.08315068 C96.6979813 183.22896175 96.67165503 192.37453098 96.63125581 201.52025682 C96.60111318 208.58613633 96.58628961 215.65194644 96.58297569 222.71788901 C96.58062314 226.93960172 96.5716364 231.16105614 96.54651451 235.38269997 C96.52326088 239.35460244 96.51898941 243.32607609 96.52927589 247.29802895 C96.52977203 248.7553093 96.52342872 250.21261056 96.50971985 251.66982651 C96.49204246 253.66036531 96.50147885 255.65108972 96.51225281 257.64167786 C96.50986445 258.75537152 96.5074761 259.86906519 96.50501537 261.01650715 C97.11425395 264.68865943 98.43740278 266.3510385 101 269 C104.10048928 270.55024464 106.57894218 270.28992015 110 270 C112.75329021 268.20437595 114.52627461 266.94745078 116 264 C116.10251719 262.00957743 116.1395155 260.01567499 116.14717102 258.02262878 C116.15432632 256.74815384 116.16148163 255.47367889 116.16885376 254.1605835 C116.17169415 252.74011255 116.17440587 251.31964134 116.17700195 249.89916992 C116.18326553 248.40946799 116.18991223 246.91976762 116.19691467 245.43006897 C116.21433375 241.3762674 116.22487882 237.32247764 116.2331202 233.26864791 C116.23826827 230.73685421 116.24434407 228.20506419 116.25063133 225.67327309 C116.26968565 217.75446822 116.28391647 209.8356727 116.2922433 201.91684932 C116.3020187 192.77103825 116.32834497 183.62546902 116.36874419 174.47974318 C116.39888682 167.41386367 116.41371039 160.34805356 116.41702431 153.28211099 C116.41937686 149.06039828 116.4283636 144.83894386 116.45348549 140.61730003 C116.47673912 136.64539756 116.48101059 132.67392391 116.47072411 128.70197105 C116.47022797 127.2446907 116.47657128 125.78738944 116.49028015 124.33017349 C116.50795754 122.33963469 116.49852115 120.34891028 116.48774719 118.35832214 C116.49013555 117.24462848 116.4925239 116.13093481 116.49498463 114.98349285 C115.88574605 111.31134057 114.56259722 109.6489615 112 107 C107.72678351 104.86339175 103.24647328 105.0411744 99.5625 107.875 Z M152 142 C150.42424191 148.79329681 150.84481827 155.8920322 150.83886719 162.82641602 C150.83423266 164.22656381 150.82920716 165.62671036 150.82382202 167.02685547 C150.81076383 170.81391267 150.8042669 174.60095221 150.79981136 178.38802838 C150.79687215 180.75620016 150.79276594 183.12436718 150.78830719 185.49253654 C150.77465444 192.90889542 150.76497489 200.32524335 150.7611053 207.74161392 C150.75661899 216.29133977 150.7390353 224.8409062 150.7101047 233.39058357 C150.68848564 240.0098753 150.67840103 246.62912214 150.67706418 253.24844879 C150.67601703 257.19788157 150.67012754 261.14716402 150.65224457 265.09655952 C150.63575816 268.80911999 150.63361099 272.52141712 150.64238358 276.23400116 C150.64351986 278.24144405 150.62981007 280.24887823 150.6156311 282.25627136 C150.62120026 283.45762726 150.62676941 284.65898315 150.63250732 285.89674377 C150.63104076 286.93665246 150.6295742 287.97656115 150.6280632 289.04798222 C151.17123187 293.35904684 152.78815925 296.7015992 155.75 299.875 C159.04033698 301.52016849 161.37108493 301.44565624 165 301 C168.38939556 298.86320715 169.72582557 297.8225233 171 294 C171.097697 291.99459984 171.13499702 289.98607312 171.14044189 287.978302 C171.14615204 286.7192807 171.15186218 285.4602594 171.15774536 284.16308594 C171.1589907 282.76513682 171.1601158 281.36718759 171.16113281 279.96923828 C171.16576139 278.49909338 171.17078611 277.02894968 171.17617798 275.55880737 C171.1892992 271.56290943 171.19574627 267.56702828 171.20018864 263.57111216 C171.2031195 261.07499242 171.20722432 258.57887728 171.21169281 256.08275986 C171.22536634 248.27394638 171.23503399 240.4651434 171.2388947 232.65631878 C171.24337677 223.64017207 171.26093212 214.62417686 171.2898953 205.60807621 C171.31150358 198.63983922 171.32159851 191.67164489 171.32293582 184.70337474 C171.32398436 180.54097157 171.3299027 176.37871085 171.34775543 172.21634293 C171.36422166 168.30111105 171.36639877 164.38612893 171.35761642 160.47087479 C171.3568453 159.03456453 171.36119879 157.59824093 171.37107468 156.16196442 C171.38377386 154.19990544 171.37613304 152.23774633 171.36749268 150.27566528 C171.36969252 148.62919604 171.36969252 148.62919604 171.3719368 146.9494648 C170.9451748 143.56523532 170.02888591 141.72150866 168 139 C161.73424432 134.82282955 156.79864512 136.6300876 152 142 Z M207 171 C204.75500928 174.32631111 204.74456566 177.23252709 204.73257446 181.17991638 C204.72404449 182.4487265 204.71551453 183.71753662 204.70672607 185.02479553 C204.70742508 186.42855847 204.70834813 187.83232132 204.70947266 189.23608398 C204.70348753 190.71623066 204.69668202 192.19637422 204.68911743 193.67651367 C204.6714501 197.6950961 204.66676179 201.71359336 204.66548586 205.73221087 C204.6635863 209.08714258 204.65622825 212.44205446 204.64914167 215.79697853 C204.63285789 223.71174917 204.62797277 231.6264743 204.62939453 239.54125977 C204.6305965 247.70632123 204.60948382 255.87111859 204.5779072 264.0361132 C204.5517605 271.04684234 204.54102653 278.05748511 204.54230535 285.06826264 C204.54281539 289.25527834 204.53710899 293.44205927 204.51594925 297.62902641 C204.49659333 301.56650442 204.4964239 305.503523 204.51098251 309.44101715 C204.51307492 310.88539106 204.50834394 312.32979353 204.4962616 313.77411842 C204.48082713 315.74705432 204.49250806 317.72014664 204.50552368 319.69309998 C204.50443415 320.79682166 204.50334461 321.90054335 204.50222206 323.03771114 C205.11654329 326.69355201 206.45006639 328.35968604 209 331 C212.21929573 332.60964787 215.51887712 332.60686242 219 332 C222.21954645 329.46546343 223.70432435 327.88702695 225 324 C225.09753162 322.03483602 225.1349896 320.06649792 225.14044189 318.09892273 C225.14615204 316.86658905 225.15186218 315.63425537 225.15774536 314.36457825 C225.1589907 312.99655161 225.1601158 311.62852487 225.16113281 310.26049805 C225.16576153 308.82153191 225.17078626 307.382567 225.17617798 305.94360352 C225.18929908 302.03234648 225.1957464 298.12110661 225.20018864 294.209831 C225.20311991 291.76596645 225.20722482 289.32210659 225.21169281 286.8782444 C225.22536715 279.23121147 225.23503404 271.58418925 225.2388947 263.93714494 C225.24337507 255.11117848 225.2609222 246.28536692 225.2898953 237.45944756 C225.31151557 230.63641661 225.32159917 223.81342922 225.32293582 216.99036437 C225.32398363 212.91567742 225.32988616 208.84113609 225.34775543 204.76648521 C225.3642421 200.93250547 225.36638883 197.09878071 225.35761642 193.26477814 C225.35684636 191.85952636 225.36118484 190.45426084 225.37107468 189.04904366 C225.3838076 187.12674697 225.37612078 185.20434769 225.36749268 183.2820282 C225.36969252 181.67012619 225.36969252 181.67012619 225.3719368 180.02566051 C224.93382897 176.4617067 223.8362927 174.07055748 222 171 C216.60150136 166.84730874 212.64605855 167.56326871 207 171 Z M261 205 C259.64480806 207.71038387 259.87095267 209.82776913 259.86628723 212.86347961 C259.86202225 214.1127121 259.85775726 215.36194458 259.85336304 216.64903259 C259.85371258 218.04116824 259.85417413 219.43330387 259.85473633 220.82543945 C259.85174548 222.28558437 259.84834313 223.7457285 259.84455872 225.20587158 C259.83570562 229.17910686 259.83338002 233.15232062 259.83274293 237.12556481 C259.83179457 240.44062408 259.828117 243.7556783 259.82457083 247.07073563 C259.81642084 254.8924559 259.81398705 262.71416465 259.81469727 270.53588867 C259.8152978 278.60653185 259.80475202 286.67710812 259.7889536 294.74773437 C259.77587898 301.67348874 259.77051336 308.59922125 259.77115268 315.52498788 C259.77140774 319.66277839 259.76855199 323.80050951 259.75797462 327.93828773 C259.74829528 331.83130694 259.74821333 335.72420998 259.75549126 339.61723328 C259.75653739 341.04547482 259.75417247 342.47372359 259.7481308 343.90195274 C259.74041219 345.85314366 259.74625447 347.80437413 259.75276184 349.75556946 C259.75221707 350.84714009 259.75167231 351.93871073 259.75111103 353.06335926 C260.06798465 356.80215082 261.08527454 359.65198354 263.1875 362.75 C266.06725451 364.73603759 268.54637478 364.88090948 272 365 C276.25156948 363.26072158 277.97762428 361.04864874 280 357 C280.4471249 354.03876826 280.4471249 354.03876826 280.38095093 350.82044983 C280.3894104 349.57695267 280.39786987 348.33345551 280.40658569 347.05227661 C280.40075329 345.68206655 280.39460882 344.3118578 280.38818359 342.94165039 C280.3922506 341.49253443 280.39759321 340.04342157 280.40411377 338.59431458 C280.41777916 334.66450358 280.41249168 330.73492912 280.40297651 326.80511403 C280.39537442 322.68927838 280.40242719 318.5734628 280.40713501 314.45762634 C280.41259158 307.54503753 280.40540421 300.63254491 280.39111328 293.7199707 C280.37479338 285.73387184 280.38007081 277.74800282 280.3965925 269.76190954 C280.41021791 262.90060527 280.41212168 256.03937009 280.40427649 249.17805666 C280.39960493 245.082183 280.39896072 240.98641729 280.40888596 236.89055061 C280.4175685 233.03845557 280.4115104 229.18665603 280.39420319 225.33459282 C280.39024492 223.92290105 280.39136111 222.51118431 280.39799118 221.09950256 C280.40622222 219.16852217 280.39405742 217.23748727 280.38095093 215.30653381 C280.37981985 214.22715577 280.37868877 213.14777773 280.37752342 212.03569126 C279.80062611 207.39682109 278.31174816 204.03559065 274.625 201.125 C268.26345626 198.39862411 265.66480413 200.54723242 261 205 Z M314 237 C312.79043009 244.53526243 312.85198892 252.05357611 312.85473633 259.67041016 C312.85173866 261.02982169 312.84833474 262.38923238 312.84455872 263.74864197 C312.83578088 267.41582205 312.83338337 271.08297875 312.83274293 274.75016832 C312.83202941 277.04498948 312.82988949 279.33980479 312.82724571 281.63462448 C312.8180161 289.65030034 312.81390823 297.66595963 312.81469727 305.68164062 C312.81529889 313.13948008 312.80472443 320.59724741 312.7889536 328.05506861 C312.77586589 334.47399345 312.77051382 340.89289471 312.77115268 347.31183279 C312.7714071 351.13882898 312.76858585 354.96576085 312.75797462 358.79274368 C312.74827172 362.38956483 312.7482294 365.98626036 312.75549126 369.58308601 C312.75702963 371.52470129 312.74870758 373.46631662 312.74005127 375.40791321 C312.59103305 385.13762794 312.59103305 385.13762794 316.3515625 393.87890625 C319.56140448 396.06190304 323.19970109 396.24001888 327 396 C329.92143417 394.23496686 331.47923817 393.04152365 333 390 C333.10464197 388.01187686 333.14391727 386.02020796 333.15390015 384.02935791 C333.16250061 382.75632812 333.17110107 381.48329834 333.17996216 380.17169189 C333.18439755 378.75280802 333.18869589 377.33392372 333.19287109 375.91503906 C333.20077113 374.42695931 333.20904002 372.93888147 333.21765137 371.45080566 C333.24388454 366.55576409 333.25918101 361.66071391 333.2734375 356.765625 C333.27879679 355.08115381 333.28417429 353.39668268 333.28956985 351.71221161 C333.31120113 344.70534634 333.32993786 337.69848339 333.34119225 330.69159317 C333.35743112 320.6470819 333.3906043 310.6029575 333.44759309 300.55859208 C333.48628896 293.49779447 333.50582454 286.43710035 333.51111281 279.37619948 C333.514767 275.15830061 333.52679474 270.94081424 333.55921555 266.72303009 C333.58929002 262.75352211 333.59561061 258.78467633 333.58383179 254.81507874 C333.58361099 253.35982037 333.59192134 251.90453135 333.60948563 250.44937897 C334.02171291 241.77117738 334.02171291 241.77117738 330.60610962 234.13494873 C327.15270453 231.30588784 325.45419805 231.16267815 321.15625 231.4921875 C317.44209499 232.36689792 316.0623366 233.84204708 314 237 Z M371 266 C368.65278486 269.52082271 368.74317184 270.96644773 368.72584534 275.1355896 C368.71587021 276.41985336 368.70589508 277.70411713 368.69561768 279.02729797 C368.69472186 280.45358264 368.6940583 281.87986747 368.69360352 283.30615234 C368.68598335 284.80585646 368.6775561 286.30555667 368.66838074 287.80525208 C368.64641485 291.88173393 368.63763407 295.95814077 368.63255429 300.03467512 C368.62891323 302.58105455 368.62267449 305.12741425 368.6155529 307.67378616 C368.59105129 316.55597041 368.57800494 325.43809619 368.57446289 334.3203125 C368.57082688 342.60185165 368.54092888 350.88302034 368.49905831 359.16444623 C368.46437762 366.27281924 368.44891484 373.38106934 368.44821686 380.48952639 C368.44742328 384.73586223 368.43864832 388.98182082 368.41021919 393.22806931 C368.38407621 397.22223471 368.38181167 401.2157091 368.39787483 405.20992088 C368.39969236 406.67526568 368.392971 408.14064985 368.37705612 409.60590935 C368.35664438 411.60731839 368.37011958 413.60898732 368.38526917 415.61044312 C368.38325784 416.73021231 368.38124651 417.8499815 368.37917423 419.00368309 C369.20224011 422.97607974 370.90075604 424.46925739 374 427 C377.60301485 428.20100495 379.2025053 428.35238138 382.6875 426.8125 C385.98186265 424.23043198 387.81174895 422.41438711 388.37752342 418.16355228 C388.3786545 417.06020762 388.37978558 415.95686296 388.38095093 414.82008362 C388.3894104 413.5512735 388.39786987 412.28246338 388.40658569 410.97520447 C388.40075291 409.57144037 388.39460841 408.16767753 388.38818359 406.76391602 C388.39224925 405.28376885 388.3975911 403.80362471 388.40411377 402.32348633 C388.41779516 398.30484496 388.41248508 394.28643455 388.40297651 390.26778913 C388.39538274 386.06205957 388.40242487 381.85634983 388.40713501 377.65061951 C388.41259399 370.58662363 388.40539786 363.52272183 388.39111328 356.45874023 C388.37479278 348.29371233 388.38007028 340.12890923 388.3965925 331.9638868 C388.41021087 324.95315076 388.41212513 317.94248236 388.40427649 310.93173736 C388.39960108 306.74477863 388.39897134 302.55792552 388.40888596 298.37097359 C388.41755824 294.43353645 388.41152908 290.49638875 388.39420319 286.55898285 C388.39023945 285.11462065 388.39137049 283.67023405 388.39799118 282.22588158 C388.40620051 280.25289663 388.39407596 278.27985839 388.38095093 276.30690002 C388.37981985 275.20317834 388.37868877 274.09945665 388.37752342 272.96228886 C387.9491079 269.60066823 386.98271892 267.72244966 385 265 C380.01965971 261.5137618 375.69167794 262.57634312 371 266 Z " fill="#000000" transform="translate(156,166)"/>
<path d="M0 0 C0 83.82 0 167.64 0 254 C-8.25 258.62 -16.5 263.24 -25 268 C-33.95938926 273.20310886 -33.95938926 273.20310886 -42.90234375 278.43359375 C-49.25046615 282.15334912 -55.62362113 285.82895249 -62 289.5 C-70.34809759 294.30832078 -78.68243316 299.1390576 -87 304 C-98.54722486 310.74713114 -110.12902119 317.4333937 -121.71777344 324.10888672 C-127.14659942 327.23680148 -132.57319281 330.36858448 -138 333.5 C-140.16665583 334.75001879 -142.3333225 336.00001878 -144.5 337.25 C-145.5725 337.86875 -146.645 338.4875 -147.75 339.125 C-157.5 344.75 -157.5 344.75 -160.75268555 346.62646484 C-162.91049803 347.87141282 -165.06821353 349.1165289 -167.22583008 350.36181641 C-172.77716592 353.56552651 -178.33036541 356.7659363 -183.88671875 359.9609375 C-186.15374771 361.26544797 -188.42067645 362.57013262 -190.6875 363.875 C-192.31268555 364.81001343 -192.31268555 364.81001343 -193.97070312 365.76391602 C-200.63925068 369.60984963 -207.27387986 373.50457218 -213.81518555 377.56396484 C-217.78854186 380 -217.78854186 380 -220 380 C-220 296.51 -220 213.02 -220 127 C-210.76 121.72 -201.52 116.44 -192 111 C-182.98904238 105.7514822 -182.98904238 105.7514822 -173.984375 100.4921875 C-162.25865116 93.63994348 -150.47755337 86.88276887 -138.70898438 80.10449219 C-127.01788224 73.36977827 -115.33534664 66.62180783 -103.6875 59.8125 C-95.50616631 55.03052774 -87.2994271 50.29659858 -79.06640625 45.60424805 C-54.90235568 31.82829017 -30.74888515 17.99887993 -6.97705078 3.55395508 C-6.20216309 3.08497803 -5.42727539 2.61600098 -4.62890625 2.1328125 C-3.94900635 1.71918457 -3.26910645 1.30555664 -2.56860352 0.87939453 C-1 0 -1 0 0 0 Z M-39.1875 42.5 C-40.69340698 43.37144653 -40.69340698 43.37144653 -42.22973633 44.26049805 C-45.49615135 46.15768491 -48.74952026 48.07565091 -52 50 C-53.07636719 50.63631348 -54.15273438 51.27262695 -55.26171875 51.92822266 C-59.70780112 54.55961818 -64.15132203 57.19522463 -68.58984375 59.83935547 C-76.73907431 64.69052948 -84.9445733 69.43500019 -93.1875 74.125 C-105.84403519 81.32826366 -118.43707444 88.63472626 -131 96 C-132.15770819 96.67855953 -133.31542324 97.35710735 -134.47314453 98.03564453 C-139.37834595 100.91077315 -144.28348431 103.78600733 -149.18725586 106.66357422 C-156.08818165 110.71232267 -162.99686418 114.74725438 -169.91455078 118.76733398 C-173.78834259 121.02117092 -177.65628165 123.28489224 -181.52246094 125.55175781 C-183.73131287 126.84293929 -185.94689517 128.12162092 -188.1640625 129.3984375 C-189.31827691 130.07715901 -190.47198246 130.75674721 -191.625 131.4375 C-192.54539062 131.97246094 -193.46578125 132.50742187 -194.4140625 133.05859375 C-199.17055287 136.62955404 -202.59844095 139.92350658 -203.75225353 145.8899622 C-203.78359468 147.3277539 -203.78271874 148.76649154 -203.75517273 150.20436096 C-203.76382711 151.00240125 -203.77248149 151.80044154 -203.78139812 152.62266487 C-203.80289711 155.28243977 -203.78173978 157.94010279 -203.76049805 160.59985352 C-203.76699469 162.51231889 -203.77605817 164.424777 -203.78749084 166.33721924 C-203.81054403 171.52118033 -203.79586969 176.70440391 -203.77302146 181.88834119 C-203.75409004 187.31610983 -203.76526609 192.74382945 -203.77192688 198.1716156 C-203.77826472 207.28502095 -203.76001055 216.39813118 -203.72729492 225.51147461 C-203.68979031 236.04592815 -203.69158492 246.57982291 -203.7143361 257.11430603 C-203.7352868 267.25221257 -203.72801088 277.38991269 -203.70801735 287.52781487 C-203.70003326 291.8407271 -203.70202055 296.15346464 -203.71204185 300.46637154 C-203.72259472 305.54487447 -203.70846095 310.62272632 -203.67529869 315.7011261 C-203.66709281 317.56432259 -203.66737392 319.42757875 -203.67677689 321.29076958 C-203.68820839 323.83544866 -203.66881995 326.37810472 -203.64164734 328.92262268 C-203.65211883 329.65910571 -203.66259032 330.39558874 -203.67337912 331.15438944 C-203.56047813 336.83350064 -201.88618348 339.15475932 -198 343 C-194.90670102 344.54664949 -192.33104528 344.64165374 -189 344 C-184.85968341 342.18794135 -181.01566098 339.91678333 -177.125 337.625 C-176.00730225 336.98232178 -174.88960449 336.33964355 -173.73803711 335.67749023 C-170.48268487 333.80051138 -167.23964776 331.9039257 -164 330 C-162.4987827 329.12355267 -160.99749279 328.2472297 -159.49609375 327.37109375 C-156.83604091 325.81318827 -154.18243993 324.24480716 -151.53125 322.671875 C-145.90132079 319.33998053 -140.2307813 316.07857128 -134.5625 312.8125 C-133.45672607 312.17521973 -132.35095215 311.53793945 -131.21166992 310.88134766 C-127.8080747 308.9203862 -124.40408111 306.96011785 -121 305 C-107.32477736 297.12413313 -93.65946164 289.2328741 -80.03637695 281.26708984 C-73.81695311 277.63344105 -67.58139207 274.02927509 -61.33447266 270.44311523 C-56.99452333 267.94866443 -52.66175868 265.44196854 -48.33154297 262.93066406 C-46.05108073 261.6091123 -43.76910294 260.29056098 -41.48486328 258.97558594 C-38.02156026 256.97977663 -34.57301106 254.95961351 -31.125 252.9375 C-30.06676025 252.33043213 -29.00852051 251.72336426 -27.91821289 251.09790039 C-26.93715576 250.5177417 -25.95609863 249.93758301 -24.9453125 249.33984375 C-23.65391357 248.58755493 -23.65391357 248.58755493 -22.33642578 247.82006836 C-18.20414853 244.60103733 -16.19213224 241.43580954 -15.49384212 236.21746826 C-15.47071795 234.77113747 -15.46925161 233.32435589 -15.4853363 231.87792969 C-15.47491801 230.67602556 -15.47491801 230.67602556 -15.46428925 229.44984055 C-15.44603989 226.77356622 -15.45627751 224.09818041 -15.46655273 221.421875 C-15.45949326 219.49970843 -15.45074812 217.57754743 -15.44044495 215.65539551 C-15.41794584 210.4405471 -15.42089175 205.22600212 -15.42976642 200.01112366 C-15.43487644 195.65707209 -15.42758371 191.30307753 -15.42029434 186.94903183 C-15.40329406 176.67821011 -15.406863 166.40753696 -15.42358398 156.13671875 C-15.44051177 145.54039418 -15.4246619 134.94448136 -15.3923611 124.34820175 C-15.36567487 115.24909288 -15.35838642 106.15011225 -15.36687618 97.05096817 C-15.37180743 91.61701569 -15.36957876 86.18331106 -15.34908867 80.74938965 C-15.33074645 75.64057434 -15.3366726 70.53235207 -15.36128807 65.42356873 C-15.36630028 63.5490702 -15.36279558 61.67452659 -15.35013962 59.80006409 C-15.33422265 57.24004998 -15.34914553 54.68199203 -15.37181091 52.12207031 C-15.35997518 51.38101421 -15.34813946 50.63995811 -15.33594507 49.87644577 C-15.43838481 44.17810484 -17.09830468 41.85511834 -21 38 C-27.74843149 34.62578425 -33.43894325 39.09488532 -39.1875 42.5 Z " fill="#000000" transform="translate(828,288)"/>
<path d="M0 0 C0.63245647 21.36540535 1.10765055 42.72925648 1.39892864 64.10214233 C1.53781597 74.02799426 1.7268725 83.94801287 2.03686523 93.87011719 C2.30714112 102.52515599 2.48041864 111.17597231 2.54038936 119.83511353 C2.575433 124.41733126 2.65680078 128.98747982 2.85471153 133.5657959 C3.9893645 160.82337577 3.9893645 160.82337577 -1.26617002 167.64299011 C-8.21066869 174.68880147 -17.77082438 178.8597685 -27 182 C-27.33 182 -27.66 182 -28 182 C-28.56185839 160.46924057 -28.98442958 138.93969664 -29.24349213 117.40308189 C-29.36700944 107.40163851 -29.53520251 97.40476081 -29.81054688 87.40625 C-30.05057294 78.6860495 -30.204771 69.96915436 -30.25812387 61.24574244 C-30.28930231 56.62897538 -30.3618879 52.02165795 -30.53752136 47.40793991 C-31.56731046 19.31459161 -31.56731046 19.31459161 -25.56204224 12.0513382 C-19.09489857 6.72000307 -11.89083265 3.62897563 -4 1 C-2 0 -2 0 0 0 Z " fill="#000000" transform="translate(792,354)"/>
<path d="M0 0 C0.36419395 21.40906339 0.67093373 42.81826342 0.90927315 64.22911263 C1.02127882 74.17059614 1.15208227 84.11116832 1.32714844 94.05175781 C1.47968812 102.7159596 1.59694961 111.37979779 1.67185199 120.04503143 C1.71274862 124.63366889 1.77129953 129.22054752 1.87210464 133.80829239 C1.9664537 138.12758437 2.01357918 142.44483238 2.02467537 146.76511574 C2.03703763 148.34958771 2.06658594 149.93403401 2.11467934 151.51782417 C2.2497863 156.14922534 2.26232609 160.49859356 1 165 C-1.97467131 168.05919588 -5.06234708 169.48068342 -9 171 C-10.24397237 171.69969071 -11.47487895 172.42354157 -12.6862793 173.17822266 C-14.36330933 174.16121338 -14.36330933 174.16121338 -16.07421875 175.1640625 C-16.68715286 175.52341888 -17.30008698 175.88277527 -17.93159485 176.25302124 C-19.20758757 177.0009605 -20.48372591 177.7486514 -21.76000977 178.49609375 C-23.69522566 179.62952482 -25.62987076 180.7639255 -27.56445312 181.8984375 C-34.53660975 185.98436789 -34.53660975 185.98436789 -38 188 C-38.62758209 188.37356628 -39.25516418 188.74713257 -39.90176392 189.13201904 C-44.77912669 192 -44.77912669 192 -47 192 C-47 137.22 -47 82.44 -47 26 C-40.07 22.04 -33.14 18.08 -26 14 C-20.55256534 10.80982217 -15.10937539 7.6140832 -9.68164062 4.390625 C-8.70001953 3.813125 -7.71839844 3.235625 -6.70703125 2.640625 C-5.8456958 2.13047852 -4.98436035 1.62033203 -4.09692383 1.09472656 C-2 0 -2 0 0 0 Z " fill="#000000" transform="translate(742,383)"/>
<path d="M0 0 C15.98777603 7.99388801 15.98777603 7.99388801 21.875 11.5625 C23.3212608 12.42507263 24.76789818 13.28701406 26.21484375 14.1484375 C26.98038574 14.60573242 27.74592773 15.06302734 28.53466797 15.53417969 C33.1525834 18.27986836 37.79600069 20.98193649 42.4375 23.6875 C43.44498291 24.27515137 44.45246582 24.86280273 45.49047852 25.46826172 C55.24943546 31.1553067 65.03355427 36.79847724 74.8203125 42.4375 C81.20332129 46.11550817 87.57934083 49.80550278 93.95239258 53.50073242 C98.2927319 56.01624147 102.64190329 58.51537082 107 61 C105.74327861 64.77016416 104.70437669 65.00711403 101.27734375 66.86328125 C100.27646729 67.41298584 99.27559082 67.96269043 98.24438477 68.52905273 C97.15311279 69.11759033 96.06184082 69.70612793 94.9375 70.3125 C92.63178953 71.5788684 90.32712644 72.84714539 88.0234375 74.1171875 C87.4346431 74.44071701 86.84584869 74.76424652 86.23921204 75.09757996 C80.45653569 78.28123823 74.75404915 81.59445875 69.0625 84.9375 C67.07173919 86.10437927 65.08085253 87.27104387 63.08984375 88.4375 C62.0932373 89.02144531 61.09663086 89.60539062 60.06982422 90.20703125 C53.69494531 93.93035801 47.29589996 97.61191756 40.89794922 101.29541016 C35.78614194 104.23852531 30.67643115 107.18494172 25.57757568 110.1504364 C23.19010447 111.53879977 20.8012368 112.9247507 18.41229248 114.31057739 C16.7274538 115.28929105 15.04460962 116.27143565 13.36181641 117.25366211 C12.33878418 117.84671143 11.31575195 118.43976074 10.26171875 119.05078125 C8.91533325 119.83449097 8.91533325 119.83449097 7.54174805 120.6340332 C5 122 5 122 0 124 C0 83.08 0 42.16 0 0 Z " fill="#000000" transform="translate(849,405)"/>
<path d="M0 0 C0.51490719 21.41788735 0.90233516 42.83474905 1.13986778 64.25757885 C1.25311619 74.20597403 1.40735091 84.15051543 1.65966797 94.09643555 C1.87960382 102.77010983 2.02102219 111.4409939 2.06994689 120.11737901 C2.09853795 124.70943117 2.16518012 129.29350572 2.32606125 133.88298607 C3.26802918 161.80321234 3.26802918 161.80321234 -2.18376923 168.80438614 C-7.34383499 173.22480772 -13.02016612 175.95097325 -19.44693565 178.06245899 C-22.20425058 179.07500528 -24.49134889 180.48664553 -27 182 C-27.66 182 -28.32 182 -29 182 C-29.21023752 160.59051334 -29.36894703 139.18119684 -29.46630955 117.77088737 C-29.51271844 107.82965465 -29.57598894 97.88906326 -29.67895508 87.94824219 C-29.76865768 79.28381332 -29.82672303 70.61984887 -29.84679645 61.95496857 C-29.85853104 57.3666301 -29.88610562 52.77962021 -29.95157051 48.19170761 C-30.01270462 43.87227226 -30.03149712 39.55471115 -30.01796913 35.23488426 C-30.02044339 33.65054443 -30.03832577 32.0661414 -30.07284927 30.48217583 C-30.32113657 18.50199614 -30.32113657 18.50199614 -27.02436638 14.75390816 C-24.73222384 13.20062458 -22.5485827 12.06647642 -20 11 C-18.63875 10.16299561 -18.63875 10.16299561 -17.25 9.30908203 C-16.5075 8.87966309 -15.765 8.45024414 -15 8.0078125 C-14.17628906 7.53085937 -13.35257813 7.05390625 -12.50390625 6.5625 C-11.67761719 6.088125 -10.85132813 5.61375 -10 5.125 C-9.14277344 4.62742187 -8.28554688 4.12984375 -7.40234375 3.6171875 C-1.13188959 0 -1.13188959 0 0 0 Z " fill="#000000" transform="translate(674,422)"/>
<path d="M0 0 C2.95803467 1.14705307 5.52796111 2.4259883 8.25390625 4.03833008 C9.20378418 4.59641357 10.15366211 5.15449707 11.13232422 5.72949219 C12.14182129 6.33027588 13.15131836 6.93105957 14.19140625 7.55004883 C15.25375488 8.17596924 16.31610352 8.80188965 17.41064453 9.44677734 C20.67432519 11.37130708 23.93336415 13.30349197 27.19140625 15.23754883 C30.81581531 17.38438106 34.44108821 19.52975203 38.06640625 21.67504883 C39.40082764 22.46564697 39.40082764 22.46564697 40.76220703 23.2722168 C48.93043874 28.10332944 57.14925759 32.8448211 65.37402344 37.57885742 C75.68122503 43.51289111 85.95525304 49.50277087 96.22363281 55.50366211 C101.21131582 58.41765723 106.2014933 61.3273745 111.19140625 64.23754883 C113.19141805 65.40419526 115.19141806 66.57086192 117.19140625 67.73754883 C118.18140625 68.31504883 119.17140625 68.89254883 120.19140625 69.48754883 C123.19140625 71.23754883 126.19140625 72.98754883 129.19140625 74.73754883 C130.675802 75.60343628 130.675802 75.60343628 132.19018555 76.48681641 C134.19427816 77.65588402 136.1983471 78.82499222 138.20239258 79.99414062 C143.1395842 82.87440278 148.0771578 85.75400548 153.015625 88.63208008 C164.53631117 95.34734635 176.04641098 102.0803729 187.54876709 108.82696533 C199.75131202 115.98386786 211.96882419 123.11491843 224.19140625 130.23754883 C237.65599173 138.08394866 251.11169176 145.9451612 264.55380249 153.82998657 C272.76003174 158.64336834 280.97166986 163.44725261 289.19140625 168.23754883 C301.63601457 175.49073335 314.06141851 182.77652775 326.48583984 190.06420898 C330.14387488 192.20979301 333.80233587 194.35464986 337.4609375 196.49926758 C338.05796478 196.84924301 338.65499207 197.19921844 339.27011108 197.55979919 C342.28285204 199.32582121 345.29567505 201.09170311 348.30859375 202.85742188 C353.77556257 206.06151815 359.24198013 209.26653627 364.70565796 212.47624207 C367.76304374 214.27229722 370.82088858 216.0675698 373.87890625 217.86254883 C374.77536865 218.38883377 374.77536865 218.38883377 375.68994141 218.92575073 C383.37779865 223.43736799 391.08427383 227.91489219 398.81225586 232.35742188 C415.87213914 242.16491348 415.87213914 242.16491348 422.31640625 246.05004883 C423.28835938 246.63399414 424.2603125 247.21793945 425.26171875 247.81958008 C425.89851563 248.28750977 426.5353125 248.75543945 427.19140625 249.23754883 C427.19140625 249.89754883 427.19140625 250.55754883 427.19140625 251.23754883 C426.52310791 251.60928223 425.85480957 251.98101563 425.16625977 252.36401367 C408.40088022 261.69137328 408.40088022 261.69137328 391.8125 271.32788086 C384.06814289 275.92189617 376.25722432 280.4006779 368.44946289 284.88574219 C367.39621826 285.49168213 366.34297363 286.09762207 365.2578125 286.72192383 C364.23574707 287.30522461 363.21368164 287.88852539 362.16064453 288.48950195 C360.19849329 289.6446576 358.26294891 290.84638381 356.35888672 292.0949707 C355.4876416 292.66280273 354.61639648 293.23063477 353.71875 293.81567383 C352.96198975 294.33033203 352.20522949 294.84499023 351.42553711 295.37524414 C349.19140625 296.23754883 349.19140625 296.23754883 346.74169922 295.57543945 C344.08210947 294.18021144 341.45661526 292.76200515 338.859375 291.25317383 C337.82603027 290.65496826 336.79268555 290.0567627 335.72802734 289.44042969 C334.62281738 288.795979 333.51760742 288.15152832 332.37890625 287.48754883 C331.2132078 286.81093182 330.04735242 286.1345851 328.88134766 285.45849609 C325.89079044 283.72320129 322.90270409 281.9837038 319.91558838 280.24249268 C318.2817923 279.29023057 316.64750232 278.338816 315.01318359 277.38745117 C307.08106919 272.76986854 299.15642268 268.13954358 291.23242188 263.50805664 C278.80917147 256.2481941 266.36739125 249.02217602 253.8984375 241.84106445 C246.68918241 237.68650565 239.49804611 233.50212933 232.31640625 229.30004883 C222.89031826 223.78624684 213.41874055 218.35590376 203.93127441 212.9487915 C196.46947433 208.69517695 189.02909165 204.41045312 181.63891602 200.03344727 C175.18574134 196.21721566 168.68858883 192.4782388 162.19140625 188.73754883 C154.30119823 184.19347355 146.42339463 179.63131322 138.58178711 175.00390625 C124.12666253 166.47498233 109.61252734 158.04766973 95.06640625 149.67504883 C86.17969518 144.55929374 77.33289872 139.3818894 68.51464844 134.14916992 C60.38717894 129.33457549 52.20668368 124.61435732 44.01928711 119.90258789 C35.57435593 115.04113274 27.15242335 110.14141935 18.73876953 105.22607422 C12.73053862 101.71671438 6.71556819 98.21948622 0.69140625 94.73754883 C-6.34053331 90.67312068 -13.35811753 86.58460336 -20.37109375 82.48754883 C-27.78170819 78.15824001 -35.20398542 73.85022799 -42.64282227 69.56958008 C-46.96564817 67.0808844 -51.28357477 64.58374799 -55.6015625 62.08666992 C-58.84263645 60.21792037 -62.09116088 58.36256276 -65.33984375 56.50708008 C-67.37143473 55.33449357 -69.40269987 54.16134229 -71.43359375 52.98754883 C-72.38250488 52.45057373 -73.33141602 51.91359863 -74.30908203 51.36035156 C-75.16743652 50.86092041 -76.02579102 50.36148926 -76.91015625 49.84692383 C-77.66635254 49.41347656 -78.42254883 48.9800293 -79.20166016 48.53344727 C-79.73194824 48.10580078 -80.26223633 47.6781543 -80.80859375 47.23754883 C-80.80859375 46.24754883 -80.80859375 45.25754883 -80.80859375 44.23754883 C-79.97557739 43.77251953 -79.97557739 43.77251953 -79.12573242 43.2980957 C-66.35500661 36.15574208 -53.69927555 28.84403222 -41.12792969 21.35644531 C-32.86875735 16.44284314 -24.57272042 11.59826581 -16.24609375 6.80004883 C-15.1274292 6.15503418 -14.00876465 5.51001953 -12.85620117 4.84545898 C-3.01232754 -0.81775895 -3.01232754 -0.81775895 0 0 Z " fill="#000000" transform="translate(147.80859375,437.762451171875)"/>
<path d="M0 0 C0.29663888 31.96691548 0.52666218 63.93343905 0.66384928 95.90140948 C0.68010824 99.67646275 0.69693446 103.4515133 0.71411133 107.2265625 C0.71922638 108.35386716 0.71922638 108.35386716 0.72444477 109.50394565 C0.78099501 121.66896849 0.883483 133.83319177 1.00298635 145.99774045 C1.12460757 158.48210617 1.1967742 170.96605352 1.22315043 183.45098734 C1.24097929 191.15388322 1.2972532 198.85451933 1.40291407 206.55671936 C1.4798354 212.46535152 1.48790602 218.37282754 1.47039986 224.28197479 C1.47397677 226.70404215 1.49984615 229.12619491 1.54967117 231.54775238 C1.8985055 249.37585431 1.8985055 249.37585431 -1.24931359 253.7268219 C-4.70328123 256.8888935 -8.62999218 258.38477881 -13 260 C-15.0348044 261.14265483 -17.05282897 262.31637299 -19.04296875 263.53515625 C-21.09004474 264.71285349 -23.13825822 265.88857538 -25.1875 267.0625 C-26.89042782 268.04151113 -28.5933538 269.02052547 -30.2961731 269.99972534 C-32.04395461 271.00447299 -33.79220596 272.00839914 -35.54052734 273.01220703 C-41.03139224 276.16722623 -46.51550135 279.3339315 -52 282.5 C-58.52225882 286.26376716 -65.04513773 290.02644628 -71.5703125 293.78515625 C-82.06232094 299.83055159 -92.54481676 305.89110219 -103 312 C-116.73055188 320.02267511 -130.51077966 327.95858259 -144.29101562 335.89550781 C-155.87682298 342.56956618 -167.45512553 349.25533274 -179 356 C-181.94666555 357.71954678 -184.89362368 359.43859017 -187.84082031 361.15722656 C-190.07502172 362.46045317 -192.30872213 363.76451589 -194.54199219 365.06933594 C-197.56414181 366.83443263 -200.58905611 368.59471168 -203.61572266 370.35205078 C-205.34580928 371.35802677 -207.07331937 372.36842969 -208.80078125 373.37890625 C-209.84363281 373.98347656 -210.88648438 374.58804687 -211.9609375 375.2109375 C-212.88696777 375.75024902 -213.81299805 376.28956055 -214.76708984 376.84521484 C-217 378 -217 378 -219 378 C-219 294.84 -219 211.68 -219 126 C-213.72 123.03 -208.44 120.06 -203 117 C-199.20185098 114.80160116 -195.40931423 112.59675219 -191.625 110.375 C-183.14047575 105.4104196 -174.64174121 100.47161529 -166.125 95.5625 C-165.04702148 94.94109131 -163.96904297 94.31968262 -162.85839844 93.67944336 C-158.47567736 91.15373561 -154.09231817 88.62913637 -149.70898438 86.10449219 C-137.1323608 78.85966952 -124.56963043 71.5926719 -112.03857422 64.26928711 C-103.61430661 59.34948718 -95.16446104 54.47477862 -86.7109375 49.60546875 C-79.46048459 45.42650842 -72.22516137 41.22252011 -65 37 C-54.57764632 30.91013963 -44.12851834 24.86773329 -33.66796875 18.84375 C-29.6001085 16.50089533 -25.53530363 14.15291613 -21.47442627 11.79798889 C-19.04774161 10.39080544 -16.62017349 8.98514985 -14.19256592 7.57955933 C-12.46428102 6.57801958 -10.73725706 5.57430495 -9.01025391 4.57055664 C-7.45636963 3.6713147 -7.45636963 3.6713147 -5.87109375 2.75390625 C-4.95255615 2.22095947 -4.03401855 1.6880127 -3.08764648 1.13891602 C-1 0 -1 0 0 0 Z M-40 40 C-41.02818848 40.60835693 -41.02818848 40.60835693 -42.07714844 41.22900391 C-46.17507784 43.66063365 -50.25418654 46.12218737 -54.328125 48.59375 C-60.45936437 52.29758973 -66.66318382 55.87095734 -72.875 59.4375 C-81.77261353 64.55098912 -90.63703529 69.71428638 -99.46484375 74.94726562 C-107.0888381 79.46579676 -114.72872342 83.95682287 -122.375 88.4375 C-122.99165527 88.79887054 -123.60831055 89.16024109 -124.24365234 89.53256226 C-132.59508259 94.42585889 -140.95141356 99.31071787 -149.3125 104.1875 C-150.27502686 104.74896729 -151.23755371 105.31043457 -152.22924805 105.88891602 C-157.27279326 108.82988853 -162.3187272 111.76669111 -167.3671875 114.69921875 C-172.39503304 117.62104943 -177.41734115 120.55210589 -182.43310547 123.49462891 C-184.03497659 124.43405608 -185.63797725 125.37156306 -187.24267578 126.30615234 C-189.08461278 127.38162175 -190.91869957 128.46904971 -192.75 129.5625 C-194.16539062 130.39974609 -194.16539062 130.39974609 -195.609375 131.25390625 C-199.28207225 133.93641552 -201.56063726 136.68191178 -203 141 C-203.0998723 143.56036218 -203.14344495 146.09360072 -203.14044189 148.65414429 C-203.14341302 149.44130534 -203.14638414 150.22846639 -203.1494453 151.03948081 C-203.15813937 153.68567366 -203.15964113 156.33182132 -203.16113281 158.97802734 C-203.16576044 160.8718119 -203.17078502 162.76559552 -203.17617798 164.65937805 C-203.18930824 169.81019794 -203.19574801 174.9610048 -203.20018864 180.11183882 C-203.203118 183.32824982 -203.20722252 186.54465724 -203.21169281 189.76106644 C-203.22536861 199.81988616 -203.23503519 209.87869773 -203.2388947 219.93752611 C-203.24337756 231.55776145 -203.26093573 243.17787929 -203.2898953 254.79807889 C-203.31149214 263.77479112 -203.32159789 272.75147024 -203.32293582 281.72820818 C-203.32398517 287.09226217 -203.32992063 292.45620571 -203.34775543 297.82023239 C-203.36420185 302.86483487 -203.36640832 307.90924346 -203.35761642 312.95386314 C-203.35684424 314.80621166 -203.36121253 316.65857045 -203.37107468 318.51089287 C-203.38374201 321.03812383 -203.37794604 323.56466267 -203.36749268 326.09188843 C-203.37554908 326.82623088 -203.38360548 327.56057334 -203.39190602 328.31716859 C-203.34918039 332.72858445 -202.66260071 335.46741507 -200 339 C-197.17353 341.63803867 -194.88132533 342.82357612 -191 343 C-183.98071526 340.80004379 -177.97973545 337.25999436 -171.6875 333.5 C-169.53533622 332.22886191 -167.38299051 330.9580318 -165.23046875 329.6875 C-164.17134277 329.05972656 -163.1122168 328.43195313 -162.02099609 327.78515625 C-157.86354266 325.32844868 -153.68372485 322.91159719 -149.5 320.5 C-144.48363029 317.6021631 -139.47305906 314.6948489 -134.47265625 311.76953125 C-123.68045974 305.45602405 -112.86303358 299.19069904 -102 293 C-92.28539282 287.46373098 -82.60348447 281.87486363 -72.95288086 276.22753906 C-66.62551332 272.52643718 -60.28474007 268.84962275 -53.93261719 265.19116211 C-50.63959269 263.29440481 -47.34896563 261.39354166 -44.05859375 259.4921875 C-40.28875335 257.31479501 -36.51098132 255.1528599 -32.72265625 253.0078125 C-31.18999844 252.13039299 -29.65743831 251.25280283 -28.125 250.375 C-27.44767822 249.99762695 -26.77035645 249.62025391 -26.07250977 249.23144531 C-21.49909549 246.5929142 -18.37253727 243.74507454 -16 239 C-15.89570175 236.4167558 -15.85220316 233.86008208 -15.85282898 231.27629089 C-15.84915229 230.46956651 -15.8454756 229.66284212 -15.8416875 228.83167154 C-15.830625 226.11327924 -15.8268025 223.39492514 -15.82299805 220.67651367 C-15.81673538 218.7336159 -15.81008876 216.79071934 -15.80308533 214.8478241 C-15.78565839 209.55852347 -15.77511916 204.26923189 -15.7668798 198.97990966 C-15.76173371 195.67757175 -15.75565784 192.37523668 -15.74936867 189.07290077 C-15.73031271 178.74711182 -15.71608188 168.42133004 -15.7077567 158.09552687 C-15.69797882 146.16395627 -15.67164654 134.23257092 -15.63125581 122.30106562 C-15.60112981 113.08658442 -15.58629121 103.87215643 -15.58297569 94.65762693 C-15.58062137 89.15043861 -15.57161125 83.64344811 -15.54651451 78.13631248 C-15.52329002 72.95625736 -15.5189779 67.77653108 -15.52927589 62.59643745 C-15.52977272 60.69409468 -15.52340922 58.79173603 -15.50971985 56.88944244 C-15.49208668 54.29411786 -15.4990643 51.69998443 -15.51225281 49.10466003 C-15.50128356 48.35018072 -15.49031432 47.5957014 -15.47901267 46.81835908 C-15.52301568 43.236773 -15.89821099 41.16299152 -17.8117342 38.0989275 C-20.22593379 35.7832902 -22.32178337 34.52965307 -25.640625 33.91796875 C-31.01852706 34.10494879 -35.49391927 37.30968039 -40 40 Z " fill="#000000" transform="translate(968,486)"/>
<path d="M0 0 C4.41747446 1.41474453 8.13162185 3.07599244 12.12109375 5.45703125 C12.98003235 5.96574013 12.98003235 5.96574013 13.85632324 6.48472595 C15.0825608 7.21156371 16.307328 7.94088691 17.5307312 8.67248535 C20.78430335 10.61772376 24.04887805 12.54434307 27.3125 14.47265625 C28.29572487 15.05447159 28.29572487 15.05447159 29.29881287 15.64804077 C35.13409317 19.09480361 41.02459182 22.43825613 46.9375 25.75 C55.35989727 30.4764434 63.69910662 35.3276492 72.00244141 40.26000977 C77.91781392 43.77356001 83.85328095 47.24885554 89.8125 50.6875 C95.61847337 54.03864293 101.4128348 57.40767228 107.1875 60.8125 C123.49747423 70.42517903 139.86671748 79.93464121 156.27148438 89.38452148 C164.67679357 94.22914352 173.06117512 99.1088158 181.43774414 104.00292969 C187.5957884 107.600198 193.76238944 111.18211604 199.9375 114.75 C206.38897061 118.47887477 212.82124371 122.23864669 219.24047852 126.02270508 C233.26400083 134.28521282 247.33484172 142.4672801 261.4296875 150.60742188 C269.40102212 155.21855284 277.33678779 159.89020414 285.27688599 164.55480957 C293.03092452 169.10842224 300.80421272 173.62417253 308.625 178.0625 C317.18480356 182.92022212 325.64937669 187.93119761 334.10473633 192.96786499 C343.00725712 198.26708199 351.97983332 203.42366907 361.01269531 208.49682617 C368.53219854 212.7227765 375.97328317 217.06696418 383.39453125 221.46240234 C386.58151672 223.34317769 389.77475904 225.21318947 392.96875 227.08203125 C429.39888605 248.39888605 429.39888605 248.39888605 431 250 C431.09636367 251.35006197 431.12371954 252.7051287 431.12304783 254.05862522 C431.12503888 254.93843195 431.12702993 255.81823869 431.12908131 256.72470623 C431.12616847 257.70231236 431.12325563 258.67991849 431.12025452 259.68714905 C431.12153615 261.23201348 431.12153615 261.23201348 431.12284368 262.80808729 C431.12450157 266.2875214 431.11897208 269.76690816 431.11352539 273.24633789 C431.11324356 275.72921243 431.11340117 278.21208706 431.1139679 280.69496155 C431.11419622 286.05501486 431.11134478 291.4150532 431.10573006 296.77510262 C431.09761728 304.52491796 431.09500007 312.27472742 431.09374207 320.02454656 C431.09155119 332.59685273 431.08489016 345.16915242 431.07543945 357.74145508 C431.06626624 369.95727506 431.05918496 382.17309329 431.05493164 394.38891602 C431.05453756 395.51760626 431.05453756 395.51760626 431.05413551 396.66909833 C431.05283051 400.44381364 431.05156679 404.21852896 431.05032361 407.99324429 C431.0399499 439.32883423 431.02225651 470.66441614 431 502 C430.04874237 501.45630768 429.09748474 500.91261536 428.11740112 500.35244751 C426.85154332 499.62900593 425.58568429 498.90556651 424.31982422 498.18212891 C423.69496628 497.82498306 423.07010834 497.46783722 422.42631531 497.09986877 C418.91345442 495.09233484 415.39929683 493.08712084 411.8828125 491.0859375 C398.53383165 483.48360931 385.26020632 475.75588935 372 468 C358.60187233 460.16741725 345.18629141 452.36691354 331.73779297 444.62109375 C323.2056042 439.70384853 314.69759666 434.74606991 306.1953125 429.77734375 C301.14366313 426.82718052 296.08488572 423.89248934 291 421 C283.84554113 416.93025347 276.74372153 412.7715826 269.63745117 408.6184082 C262.21102285 404.28141978 254.7663013 399.97724103 247.3125 395.6875 C237.39854545 389.97989474 227.52112852 384.21273695 217.65811157 378.41781616 C209.1273469 373.40663375 200.57599587 368.43355944 192 363.5 C182.8066854 358.21131229 173.64434999 352.87267492 164.5 347.5 C154.1846425 341.43956692 143.84143475 335.43026334 133.47241211 329.46191406 C125.15085123 324.67026753 116.85208983 319.84054203 108.56103516 314.99633789 C102.40338342 311.39933943 96.23724226 307.81757247 90.0625 304.25 C84.33864227 300.94251206 78.62991514 297.61129451 72.9375 294.25 C65.90264694 290.09747678 58.8300393 286.01242654 51.75 281.9375 C42.57632373 276.65475831 33.42016575 271.34322703 24.28527832 265.99368286 C23.02761726 265.25718082 21.76972919 264.52106626 20.51159668 263.78536987 C18.74395057 262.75143285 16.97729333 261.71582695 15.2109375 260.6796875 C14.20337402 260.08913574 13.19581055 259.49858398 12.15771484 258.89013672 C11.11566895 258.2663916 10.07362305 257.64264648 9 257 C7.9985089 256.54417478 7.9985089 256.54417478 6.97678566 256.07914096 C1.45768813 253.3040602 1.45768813 253.3040602 0.25842857 249.88709009 C-0.02916085 247.17409223 -0.05482096 244.55979298 0 241.83183289 C-0.01091895 240.79850557 -0.0218379 239.76517825 -0.03308773 238.70053798 C-0.060011 235.23257816 -0.02983286 231.76746232 0 228.29956055 C-0.00760444 225.81608313 -0.01872191 223.33261433 -0.03309631 220.84916687 C-0.05614209 215.49979503 -0.05471373 210.15128464 -0.03103638 204.80197716 C0.00315395 197.0679713 -0.00677422 189.33451601 -0.02743971 181.60048518 C-0.05977147 169.05249671 -0.05646742 156.50478102 -0.03076172 143.95678711 C-0.0058687 131.76825738 0.00224658 119.57990676 -0.01220703 107.39135742 C-0.01309224 106.63994815 -0.01397745 105.88853889 -0.01488948 105.11435964 C-0.01943387 101.34472647 -0.02430815 97.57509382 -0.02934647 93.80546129 C-0.07071182 62.53687597 -0.05365402 31.26857352 0 0 Z M45 77 C43.63167542 79.73664916 43.86775191 81.91278315 43.85955811 84.97737122 C43.85384796 86.25184616 43.84813782 87.52632111 43.84225464 88.8394165 C43.84100922 90.2598876 43.83988413 91.6803588 43.83886719 93.10083008 C43.83424 94.59053165 43.82921547 96.08023203 43.82382202 97.56993103 C43.81068575 101.62373759 43.80425059 105.67752757 43.79981136 109.73135209 C43.79688239 112.26314598 43.7927779 114.79493531 43.78830719 117.32672691 C43.77462853 125.24553463 43.76496389 133.16433197 43.7611053 141.08315068 C43.75662461 150.2289177 43.73907779 159.37453525 43.7101047 168.52025682 C43.68849639 175.58613734 43.67840146 182.65197579 43.67706418 189.71788901 C43.67601546 193.93955105 43.6700937 198.16107267 43.65224457 202.38269997 C43.63577871 206.35455104 43.63360106 210.32615593 43.64238358 214.29802895 C43.64315477 215.7553015 43.63880029 217.21258721 43.62892532 218.66982651 C43.61622811 220.66040349 43.62386624 222.65107914 43.63250732 224.64167786 C43.63104076 225.75537152 43.6295742 226.86906519 43.6280632 228.01650715 C44.12789326 232.02589645 45.54087595 234.81108411 48.6875 237.375 C52.28993337 238.34863064 55.44094392 238.0962185 59 237 C61.63460869 234.90582386 62.75603249 233.33566922 63.36567307 229.99801922 C64.0582263 222.73292175 64.15462377 215.51085302 64.16113281 208.21606445 C64.16577209 206.85650501 64.17079821 205.49694685 64.17617798 204.13739014 C64.18918615 200.47440641 64.19572253 196.8114409 64.20018864 193.14843774 C64.20313463 190.85578882 64.20724191 188.56314473 64.21169281 186.27049828 C64.22532923 179.08427403 64.23501802 171.89806099 64.2388947 164.71182472 C64.24338405 156.43833924 64.26098859 148.16501825 64.2898953 139.89158279 C64.31152551 133.47688408 64.32159948 127.06223166 64.32293582 120.64749688 C64.3239817 116.82383024 64.32984472 113.00031907 64.34775543 109.17669106 C64.36426235 105.58391838 64.36637912 101.99141775 64.35761642 98.39862061 C64.35648252 96.45938636 64.37017436 94.52016102 64.3843689 92.58097839 C64.3543818 86.30944539 64.19822282 81.47510947 61 76 C58.47313415 73.93860944 56.75356719 73.13525565 53.5625 72.5625 C50.00789657 73.16938351 47.82547338 74.81667966 45 77 Z M98 111 C96.64076294 113.71847413 96.86780793 115.85680701 96.85955811 118.90144348 C96.85384796 120.15909012 96.84813782 121.41673676 96.84225464 122.7124939 C96.84100922 124.11407461 96.83988413 125.51565543 96.83886719 126.91723633 C96.83423996 128.38723373 96.82921543 129.85722994 96.82382202 131.32722473 C96.81068609 135.32731399 96.80425065 139.32738645 96.79981136 143.32749391 C96.79688232 145.82578588 96.79277782 148.32407324 96.78830719 150.8223629 C96.7746286 158.63651916 96.76496394 166.45066491 96.7611053 174.26483232 C96.75662467 183.28947912 96.73907814 192.31397445 96.7101047 201.33857518 C96.68849571 208.31103826 96.67840142 215.28345871 96.67706418 222.25595492 C96.67601551 226.42172639 96.67009473 230.58735555 96.65224457 234.75309181 C96.63577752 238.67241423 96.63360163 242.59148717 96.64238358 246.51083183 C96.64315471 247.94875379 96.63880111 249.38668908 96.62892532 250.82457733 C96.61622615 252.7888794 96.62386696 254.75328148 96.63250732 256.71760559 C96.63104076 257.81655057 96.6295742 258.91549555 96.6280632 260.04774189 C97.05105505 263.40525076 98.02374827 265.27929704 100 268 C103.21522137 270.32826375 106.10830425 270.39711181 110 270 C113.78969716 268.27741038 115.5127346 266.86051517 117 263 C117.3060891 260.10300944 117.3060891 260.10300944 117.26742554 256.86477661 C117.27595551 255.60582581 117.28448547 254.346875 117.29327393 253.04977417 C117.29257492 251.65704333 117.29165187 250.26431259 117.29052734 248.87158203 C117.29651257 247.40290993 117.30331811 245.93424098 117.31088257 244.46557617 C117.32855033 240.47791722 117.33323827 236.49034409 117.33451414 232.50264978 C117.33593585 230.01069782 117.34020582 227.51876768 117.34550858 225.02682114 C117.36401137 216.33150599 117.37217887 207.63625215 117.37060547 198.94091797 C117.36940397 190.83835957 117.39050715 182.73606751 117.4220928 174.63357651 C117.44825289 167.67463591 117.45897288 160.7157823 117.45769465 153.7567929 C117.45718494 149.6016026 117.46287305 145.446649 117.48405075 141.29150772 C117.50342883 137.38275278 117.50356089 133.47446043 117.48901749 129.56568909 C117.48692773 128.13302306 117.49164035 126.70032811 117.5037384 125.26771164 C117.84853865 115.24834478 117.84853865 115.24834478 113 107 C106.68455238 103.84227619 102.07433914 105.81447745 98 111 Z M153 141 C151.63621831 143.72756339 151.86777976 145.88478428 151.85955811 148.93940735 C151.85384796 150.20546814 151.84813782 151.47152893 151.84225464 152.7759552 C151.84100922 154.1869811 151.83988413 155.59800712 151.83886719 157.0090332 C151.83423998 158.48888269 151.82921545 159.96873099 151.82382202 161.44857788 C151.81068592 165.47552579 151.80425062 169.50245701 151.79981136 173.529423 C151.79688235 176.04446593 151.79277786 178.55950428 151.78830719 181.07454491 C151.77462856 188.94102689 151.76496391 196.80749844 151.7611053 204.6739915 C151.75662464 213.75919841 151.73907797 222.84425485 151.7101047 231.929416 C151.68849605 238.9485878 151.67840144 245.96771725 151.67706418 252.98692197 C151.67601549 257.18063872 151.67009421 261.37421411 151.65224457 265.56789589 C151.63577812 269.51348263 151.63360134 273.45882155 151.64238358 277.40443039 C151.64315474 278.85202765 151.6388007 280.29963814 151.62892532 281.74720192 C151.61622713 283.72464144 151.62386659 285.70218031 151.63250732 287.67964172 C151.63104076 288.78596105 151.6295742 289.89228037 151.6280632 291.03212452 C152.17081472 295.3630187 153.95633343 297.95633343 157 301 C160.05657695 301.57048096 162.93921194 301.52863352 166 301 C169.28175318 298.47031526 170.69243777 296.92268669 172 293 C172.09758463 291.0221721 172.13499198 289.04118518 172.14044189 287.06095886 C172.14615204 285.82021103 172.15186218 284.5794632 172.15774536 283.30111694 C172.15899071 281.92364512 172.1601158 280.54617318 172.16113281 279.16870117 C172.1657615 277.71988295 172.17078623 276.27106595 172.17617798 274.82225037 C172.18929936 270.88413468 172.19574645 266.94603604 172.20018864 263.00790191 C172.20311986 260.5472864 172.20722477 258.08667555 172.21169281 255.62606239 C172.22536721 247.92670373 172.23503408 240.22735572 172.2388947 232.52798575 C172.24337511 223.64145921 172.26092237 214.75508651 172.2898953 205.86860675 C172.31151514 198.99886707 172.32159915 192.12917066 172.32293582 185.25939733 C172.32398366 181.15676511 172.32988682 177.05427752 172.34775543 172.95168114 C172.36424136 169.09143709 172.36638919 165.2314463 172.35761642 161.37117958 C172.35684632 159.95625251 172.36118535 158.54131179 172.37107468 157.12641907 C172.38380635 155.19098491 172.37612123 153.25544887 172.36749268 151.31999207 C172.36895924 150.23801639 172.3704258 149.15604071 172.3719368 148.04127789 C171.86600035 143.90430264 170.59959112 140.2568216 167.25 137.625 C161.21347637 135.94818788 157.44968504 136.55031496 153 141 Z M208 172 C205.46071942 176.20021699 204.62424611 179.33735349 204.61904907 184.21714783 C204.6105896 185.44374619 204.60213013 186.67034454 204.59341431 187.93411255 C204.59924631 189.28021374 204.60539076 190.62631362 204.61181641 191.97241211 C204.60774804 193.40034893 204.60240468 194.82828259 204.59588623 196.25621033 C204.58223693 200.12404914 204.58750165 203.99164726 204.59702349 207.85949016 C204.60463396 211.91345908 204.59757049 215.9674078 204.59286499 220.02137756 C204.58741085 226.82963753 204.59458941 233.6377998 204.60888672 240.44604492 C204.62520605 248.30774585 204.61992863 256.16921327 204.6034075 264.03090852 C204.58977504 270.78948965 204.58788176 277.54800065 204.59572351 284.30659109 C204.60039121 288.33932511 204.60104994 292.37194954 204.59111404 296.40467644 C204.58242121 300.19769353 204.58850826 303.99041091 204.60579681 307.78339577 C204.60974962 309.17209247 204.60864832 310.56081458 204.60200882 311.94950104 C204.48992392 321.90121751 204.48992392 321.90121751 208 331 C210.48240353 333.03911719 212.20651298 333.02252869 215.4375 333.375 C219.58155564 332.93878362 221.09130272 331.90869728 224 329 C225.36200301 326.27599399 225.13850035 324.11806788 225.15390015 321.06732178 C225.16250061 319.80270615 225.17110107 318.53809052 225.17996216 317.2351532 C225.18439754 315.82571452 225.18869589 314.41627541 225.19287109 313.00683594 C225.20077116 311.52860826 225.20904005 310.05038252 225.21765137 308.57215881 C225.24388421 303.70958298 225.259181 298.84699848 225.2734375 293.984375 C225.2787968 292.31104781 225.28417431 290.63772069 225.28956985 288.96439362 C225.3112011 282.00385154 225.32993781 275.04331179 225.34119225 268.0827446 C225.35743097 258.10479527 225.39060378 248.1272354 225.44759309 238.1494329 C225.48628969 231.13534403 225.50582463 224.12135934 225.51111281 217.10716653 C225.51476691 212.91721215 225.52679364 208.72767304 225.55921555 204.53783417 C225.58929133 200.59458975 225.59561016 196.65201194 225.58383179 192.70867729 C225.583611 191.2630941 225.59192048 189.81748004 225.60948563 188.37200356 C226.01525299 179.75625081 226.01525299 179.75625081 222.64712524 172.15948486 C217.47482868 167.94000331 213.41647747 168.26864886 208 172 Z M261 206 C260.26106639 209.01706654 260.26106639 209.01706654 260.37854004 212.33813477 C260.36733124 213.6167337 260.35612244 214.89533264 260.34457397 216.212677 C260.35748401 217.62225796 260.3708981 219.03183438 260.38476562 220.44140625 C260.38126322 221.9315555 260.3756033 223.421701 260.36795044 224.91183472 C260.35370956 228.95331647 260.37075661 232.99411727 260.39423561 237.03553391 C260.41435213 241.26660652 260.40846464 245.49765108 260.40612793 249.72875977 C260.40618149 256.83393577 260.42593317 263.93884576 260.45800781 271.04394531 C260.49490031 279.25615654 260.50368328 287.46801934 260.4967103 295.68030262 C260.49040304 303.58313002 260.50116371 311.48583805 260.52067566 319.38864136 C260.52884622 322.7505768 260.53155984 326.11245121 260.52998352 329.47439575 C260.52910397 333.43403949 260.5433394 337.39335259 260.56921005 341.35290909 C260.57636654 342.80532351 260.57845795 344.25777311 260.57509232 345.71020126 C260.57137229 347.69411181 260.58798082 349.67802935 260.60559082 351.66186523 C260.60931953 352.77166245 260.61304825 353.88145966 260.61688995 355.02488708 C261.05151845 358.40007619 261.9871296 360.27894043 264 363 C266.86171426 364.70155983 268.67128788 365 272 365 C275.15436689 363.94854437 276.89048696 362.80160604 278.94929123 360.18611145 C281.39624183 355.09497024 280.68946761 349.08778411 280.64697266 343.55273438 C280.65375279 342.07390772 280.66265816 340.59508952 280.67352295 339.11628723 C280.69627635 335.10995765 280.68749675 331.10427337 280.67162752 327.09793282 C280.65894781 322.90067969 280.67071437 318.70348094 280.67855835 314.50622559 C280.68764891 307.45831405 280.6756827 300.41066468 280.65185547 293.36279297 C280.62464516 285.22032775 280.63345975 277.07848855 280.6609875 268.93603849 C280.68369459 261.93879964 280.68687088 254.94174899 280.67379415 247.94448519 C280.66600837 243.76807681 280.6649338 239.59196248 280.68147659 235.41557312 C280.69594562 231.488586 280.68585633 227.56240411 280.65700531 223.63550377 C280.65040732 222.19640628 280.65227027 220.75724075 280.66331863 219.31817055 C281.02168372 210.71008822 281.02168372 210.71008822 277.60214233 203.14465332 C274.93902406 200.94974439 273.89665381 200.19887954 270.5 200.3125 C269.7678125 200.30863281 269.035625 200.30476562 268.28125 200.30078125 C264.84278521 201.35469426 263.29142858 203.27235932 261 206 Z M315 237 C313.92643778 240.22068665 313.86622237 242.55159711 313.85282898 245.93904114 C313.84567368 247.17978897 313.83851837 248.4205368 313.83114624 249.69888306 C313.82830603 251.07635473 313.82559429 252.45382667 313.82299805 253.83129883 C313.81673245 255.28011742 313.81008556 256.72893441 313.80308533 258.17774963 C313.78205583 262.93749881 313.77168473 267.69724828 313.76171875 272.45703125 C313.75767093 274.09600021 313.753554 275.734969 313.74936867 277.37393761 C313.73032029 285.07329334 313.71608791 292.77263949 313.7077567 300.47201425 C313.69798192 309.35858613 313.6716548 318.24490909 313.63125581 327.13139325 C313.60109709 334.00113188 313.5862881 340.87079913 313.58297569 347.74060267 C313.58062511 351.84328709 313.57166381 355.94570547 313.54651451 360.04831886 C313.52323253 363.90861578 313.51900081 367.76847149 313.52927589 371.62882042 C313.52977132 373.04375552 313.52344863 374.45871235 313.50971985 375.87358093 C313.16869788 385.82253715 313.16869788 385.82253715 318 394 C321.54129184 396.36086122 322.82750218 396.57269578 327 396 C329.87018202 394.33237109 332.48089198 392.41584404 333.65919113 389.20208549 C334.08529016 386.44891043 334.13265827 383.80381037 334.14044189 381.01663208 C334.14615204 379.79133789 334.15186218 378.5660437 334.15774536 377.30361938 C334.15899062 375.94866954 334.16011573 374.59371957 334.16113281 373.23876953 C334.16576295 371.80950798 334.17078787 370.38024766 334.17617798 368.95098877 C334.18928368 365.07078169 334.19574316 361.1905919 334.20018864 357.31036615 C334.20312184 354.8854248 334.20722708 352.46048815 334.21169281 350.03554916 C334.22536187 342.44618474 334.23503186 334.8568311 334.2388947 327.26745522 C334.24337652 318.51054893 334.26093258 309.75379864 334.2898953 300.99693978 C334.31151528 294.22484363 334.32159912 287.45279137 334.32293582 280.68066108 C334.32398347 276.63728768 334.32988282 272.59406106 334.34775543 268.55072403 C334.36424204 264.74709912 334.36638888 260.94373124 334.35761642 257.14008331 C334.35684641 255.74611853 334.36118419 254.3521399 334.37107468 252.95820999 C334.38380891 251.05129387 334.3761203 249.14427432 334.36749268 247.23733521 C334.36895924 246.17140703 334.3704258 245.10547886 334.3719368 244.00724983 C333.85148898 239.79923217 332.05532925 236.66630934 329.8125 233.125 C323.82299911 229.40737876 318.84827957 231.98557511 315 237 Z M370 268 C368.63621831 270.72756339 368.86777976 272.88478428 368.85955811 275.93940735 C368.85384796 277.20546814 368.84813782 278.47152893 368.84225464 279.7759552 C368.84100922 281.1869811 368.83988413 282.59800712 368.83886719 284.0090332 C368.83423998 285.48888269 368.82921545 286.96873099 368.82382202 288.44857788 C368.81068592 292.47552579 368.80425062 296.50245701 368.79981136 300.529423 C368.79688235 303.04446593 368.79277786 305.55950428 368.78830719 308.07454491 C368.77462856 315.94102689 368.76496391 323.80749844 368.7611053 331.6739915 C368.75662464 340.75919841 368.73907797 349.84425485 368.7101047 358.929416 C368.68849605 365.9485878 368.67840144 372.96771725 368.67706418 379.98692197 C368.67601549 384.18063872 368.67009421 388.37421411 368.65224457 392.56789589 C368.63577812 396.51348263 368.63360134 400.45882155 368.64238358 404.40443039 C368.64315474 405.85202765 368.6388007 407.29963814 368.62892532 408.74720192 C368.61622713 410.72464144 368.62386659 412.70218031 368.63250732 414.67964172 C368.63104076 415.78596105 368.6295742 416.89228037 368.6280632 418.03212452 C369.12934332 422.03209704 370.54831795 424.81714796 373.6875 427.375 C377.25706039 428.33974605 380.45938944 428.01783466 384 427 C386.93087207 424.74548302 387.82814288 423.51557135 389 420 C389.09758463 418.0221721 389.13499198 416.04118518 389.14044189 414.06095886 C389.14615204 412.82021103 389.15186218 411.5794632 389.15774536 410.30111694 C389.15899071 408.92364512 389.1601158 407.54617318 389.16113281 406.16870117 C389.1657615 404.71988295 389.17078623 403.27106595 389.17617798 401.82225037 C389.18929936 397.88413468 389.19574645 393.94603604 389.20018864 390.00790191 C389.20311986 387.5472864 389.20722477 385.08667555 389.21169281 382.62606239 C389.22536721 374.92670373 389.23503408 367.22735572 389.2388947 359.52798575 C389.24337511 350.64145921 389.26092237 341.75508651 389.2898953 332.86860675 C389.31151514 325.99886707 389.32159915 319.12917066 389.32293582 312.25939733 C389.32398366 308.15676511 389.32988682 304.05427752 389.34775543 299.95168114 C389.36424136 296.09143709 389.36638919 292.2314463 389.35761642 288.37117958 C389.35684632 286.95625251 389.36118535 285.54131179 389.37107468 284.12641907 C389.38380635 282.19098491 389.37612123 280.25544887 389.36749268 278.31999207 C389.36895924 277.23801639 389.3704258 276.15604071 389.3719368 275.04127789 C388.93332763 271.45482891 387.87543874 269.07590938 386 266 C380.10991867 262.07327911 374.77299711 263.08236661 370 268 Z " fill="#000000" transform="translate(55,502)"/>
<path d="M0 0 C0 55.11 0 110.22 0 167 C-9.33333333 172.33333333 -18.66666667 177.66666667 -28 183 C-29.42763561 180.14472878 -29.14713947 177.70457089 -29.16976929 174.51132202 C-29.17571252 173.83738801 -29.18165574 173.16345399 -29.18777907 172.46909773 C-29.20622572 170.1999455 -29.21723495 167.93082179 -29.22802734 165.66162109 C-29.23915985 164.03885728 -29.25055422 162.41609524 -29.26219177 160.79333496 C-29.36006819 145.96888538 -29.37282895 131.14382604 -29.36453819 116.31909752 C-29.35968057 105.36018562 -29.39664154 94.40306209 -29.48754346 83.44451845 C-29.54774622 75.73973385 -29.55833682 68.03580956 -29.53285372 60.33083785 C-29.51910241 55.72867485 -29.5276179 51.12904344 -29.59025192 46.52723312 C-29.64835312 42.19370818 -29.64495195 37.86450013 -29.59509468 33.53091431 C-29.58747799 31.94423751 -29.60192109 30.35727157 -29.64050484 28.77104568 C-29.75030296 23.9481627 -29.64074261 19.60270742 -28 15 C-24.02719359 11.27430881 -19.98230519 9.22333996 -15 7 C-13.7227095 6.25304978 -12.45543633 5.4878926 -11.2109375 4.6875 C-10.27507813 4.130625 -9.33921875 3.57375 -8.375 3 C-7.41335938 2.4225 -6.45171875 1.845 -5.4609375 1.25 C-3 0 -3 0 0 0 Z " fill="#000000" transform="translate(932,550)"/>
<path d="M0 0 C0.97500412 8.80530318 1.22695188 17.57376975 1.3515625 26.42626953 C1.37588849 27.95021821 1.40037843 29.47416428 1.42501831 30.99810791 C1.64007347 44.81681205 1.76252827 58.63677278 1.85931396 72.4567585 C1.92573975 81.73056397 2.02081153 91.0022917 2.18652344 100.27490234 C2.33159913 108.39380094 2.42375085 116.51125854 2.45199776 124.63143623 C2.46864217 128.92066993 2.51092815 133.20604015 2.61651611 137.4940834 C3.23003915 163.47137093 3.23003915 163.47137093 -0.43299484 169.26745224 C-3.8282416 172.5868013 -7.52772322 174.15509154 -12.05526352 175.38696289 C-15.34612896 176.42433873 -18.05026221 178.24281687 -20.9765625 180.0546875 C-23.19192269 181.32949126 -25.4080614 182.60294314 -27.625 183.875 C-29.86740689 185.16368081 -32.10960272 186.45272898 -34.3515625 187.7421875 C-35.80296631 188.57532471 -35.80296631 188.57532471 -37.28369141 189.42529297 C-39.1163848 190.48774779 -40.93122096 191.5815339 -42.72802734 192.70361328 C-45 194 -45 194 -47 194 C-47.303838 172.36451936 -47.53300012 150.72939096 -47.67355824 129.09220886 C-47.74056083 119.0452844 -47.83188319 108.99968628 -47.98071289 98.95361328 C-48.11039042 90.19613699 -48.19417931 81.43962118 -48.22315043 72.68121147 C-48.24008452 68.04411776 -48.27979335 63.40977135 -48.37449074 58.77355957 C-48.46297527 54.40598845 -48.48991034 50.04228483 -48.47039986 45.67390251 C-48.47396647 44.07416661 -48.4997043 42.47429695 -48.54967117 40.8753376 C-48.69384692 36.02218205 -48.61909469 31.64375473 -47 27 C-43.03218385 23.2572468 -38.99829149 21.20948364 -34 19 C-32.737246 18.28055421 -31.48317862 17.545005 -30.24853516 16.77832031 C-29.27190918 16.21725586 -28.2952832 15.65619141 -27.2890625 15.078125 C-26.18949219 14.44519531 -25.08992187 13.81226563 -23.95703125 13.16015625 C-22.85746094 12.52980469 -21.75789062 11.89945313 -20.625 11.25 C-19.50222656 10.60417969 -18.37945313 9.95835937 -17.22265625 9.29296875 C-15.08326079 8.0628795 -12.94301789 6.83426245 -10.80175781 5.60742188 C-9.09556626 4.62854725 -7.39127084 3.64634509 -5.69042969 2.65820312 C-1.10514609 0 -1.10514609 0 0 0 Z " fill="#000000" transform="translate(882,578)"/>
<path d="M0 0 C0.66 0 1.32 0 2 0 C2.63243973 21.49580127 3.107643 42.99005793 3.39892864 64.49329376 C3.53781909 74.47966021 3.72688308 84.46022918 4.03686523 94.44287109 C4.30712976 103.15064736 4.48041634 111.85422706 4.54038936 120.56608057 C4.5754344 125.17621125 4.65681579 129.77434669 4.85471153 134.38059998 C5.98936763 161.80650891 5.98936763 161.80650891 0.73382998 168.64834213 C-6.20341738 175.70428344 -15.76602802 179.87070599 -25 183 C-25.33 183 -25.66 183 -26 183 C-26 127.56 -26 72.12 -26 15 C-17.75 10.38 -9.5 5.76 -1 1 C-0.67 0.67 -0.34 0.34 0 0 Z " fill="#000000" transform="translate(812,618)"/>
<path d="M0 0 C1.24346715 12.05357163 1.20546157 24.10805335 1.2722168 36.21240234 C1.28832782 38.54776183 1.3047078 40.88311947 1.32133484 43.21847534 C1.46514939 64.41168591 1.54113488 85.60545404 1.60025311 106.79906273 C1.60827998 109.62629615 1.61644868 112.45352911 1.62475586 115.28076172 C1.62681346 115.98334034 1.62887106 116.68591896 1.63099102 117.40978785 C1.6654908 128.81793611 1.73824275 140.22552705 1.82566347 151.63337915 C1.91484775 163.36898939 1.96617748 175.10430951 1.98155528 186.84025156 C1.9917268 193.42084714 2.01907442 200.0003426 2.08786583 206.58060837 C2.1517906 212.76170293 2.16869674 218.94113888 2.14937019 225.12251663 C2.15052518 227.39014498 2.16882377 229.65783908 2.205513 231.9251709 C2.4688629 249.08362544 2.4688629 249.08362544 -1.19801998 253.86768055 C-3.76141786 255.70025574 -6.06294593 256.89170316 -9 258 C-9.99056396 258.60255615 -10.98112793 259.2051123 -12.00170898 259.82592773 C-12.82485596 260.27395752 -13.64800293 260.7219873 -14.49609375 261.18359375 C-15.93045776 261.9732251 -15.93045776 261.9732251 -17.39379883 262.77880859 C-18.39822021 263.32617676 -19.4026416 263.87354492 -20.4375 264.4375 C-29.48808387 269.43581544 -38.43612868 274.57356356 -47.3125 279.875 C-56.51213973 285.36345914 -65.75324585 290.76283279 -75.0625 296.0625 C-75.64339386 296.39326538 -76.22428772 296.72403076 -76.82278442 297.06481934 C-79.15685782 298.39366583 -81.4910355 299.72232872 -83.82545471 301.05056763 C-99.26444947 309.83945935 -114.62388605 318.76733862 -129.96191406 327.73095703 C-138.38738484 332.65157575 -146.83830355 337.52733731 -155.29345703 342.39672852 C-162.50252306 346.55126031 -169.69319639 350.73605519 -176.875 354.9375 C-185.39206777 359.91165133 -193.92067195 364.86567366 -202.472229 369.78030396 C-203.73460621 370.50657072 -204.99613173 371.23432 -206.2567749 371.96359253 C-208.00993664 372.97727327 -209.76660793 373.98487693 -211.5234375 374.9921875 C-212.53325684 375.57339355 -213.54307617 376.15459961 -214.58349609 376.75341797 C-217 378 -217 378 -219 378 C-219 294.84 -219 211.68 -219 126 C-213.72 123.03 -208.44 120.06 -203 117 C-199.24365456 114.822226 -195.49296443 112.63782838 -191.75 110.4375 C-182.86576597 105.23404076 -173.94576637 100.096603 -165 95 C-155.28007514 89.46113452 -145.59349859 83.86853641 -135.9375 78.21875 C-127.54727628 73.31147061 -119.12904307 68.45379963 -110.70605469 63.60302734 C-103.49718534 59.44852693 -96.30635126 55.26435446 -89.125 51.0625 C-80.44742916 45.98715684 -71.73386371 40.97755394 -63 36 C-49.15747215 28.11015167 -35.39024814 20.09464388 -21.64697266 12.03320312 C-19.37808575 10.70246633 -17.10872742 9.37253292 -14.83886719 8.04345703 C-12.69125734 6.78593705 -10.5447321 5.52656253 -8.39941406 4.26513672 C-7.44389648 3.70584473 -6.48837891 3.14655273 -5.50390625 2.5703125 C-4.23268921 1.82418701 -4.23268921 1.82418701 -2.93579102 1.06298828 C-1 0 -1 0 0 0 Z M-37.75 40.5 C-39.03777344 41.23053589 -39.03777344 41.23053589 -40.3515625 41.97583008 C-48.77119849 46.78417567 -57.09567477 51.76197799 -65.42236328 56.72900391 C-73.76971743 61.70679065 -82.17731864 66.56964916 -90.625 71.375 C-100.04807107 76.73716704 -109.42850921 82.16004368 -118.76025391 87.67919922 C-131.79385152 95.36524272 -144.88975934 102.94567734 -158 110.5 C-161.2403048 112.36889962 -164.48036525 114.23822152 -167.72021484 116.10791016 C-169.94660497 117.39230225 -172.17351082 118.6758007 -174.40087891 119.95849609 C-177.70716912 121.86401708 -181.01018394 123.77510194 -184.3125 125.6875 C-185.31474609 126.26371094 -186.31699219 126.83992187 -187.34960938 127.43359375 C-196.29642472 132.12957296 -196.29642472 132.12957296 -202 140 C-202.19369135 142.66459767 -202.27846321 145.22415703 -202.26742554 147.88829041 C-202.27195665 148.68855654 -202.27648776 149.48882267 -202.28115618 150.31333929 C-202.29382797 152.99793249 -202.29217804 155.68232354 -202.29052734 158.36694336 C-202.2965108 160.29043337 -202.30331592 162.21392097 -202.31088257 164.1374054 C-202.32856688 169.36462309 -202.33323893 174.59177532 -202.33451414 179.81902003 C-202.33641212 184.18050758 -202.34376837 188.54197984 -202.35085833 192.90346152 C-202.3671486 203.19142687 -202.37202664 213.47935722 -202.37060547 223.76733398 C-202.36940338 234.38629078 -202.3905173 245.00504454 -202.4220928 255.62394994 C-202.44822551 264.7365696 -202.45897405 273.8491228 -202.45769465 282.96177965 C-202.4571842 288.40632897 -202.46291352 293.85069783 -202.48405075 299.29520988 C-202.5033829 304.41457107 -202.50359205 309.53357871 -202.48901749 314.65295219 C-202.48692214 316.53271499 -202.49167327 318.41249964 -202.5037384 320.29222488 C-202.5191344 322.8568102 -202.50992084 325.4201678 -202.49447632 327.98472595 C-202.50476344 328.73005913 -202.51505057 329.47539231 -202.52564943 330.24331135 C-202.46073532 335.11479601 -201.43430417 337.5613973 -198 341 C-195.4697015 342.91953679 -194.21607888 343.0076363 -191.015625 342.89453125 C-185.62238762 342.03618369 -181.20008769 339.04709256 -176.5625 336.3125 C-175.55678955 335.73161621 -174.5510791 335.15073242 -173.51489258 334.55224609 C-170.33656767 332.7127471 -167.16786412 330.85744484 -164 329 C-162.02384865 327.84955388 -160.04729455 326.69979927 -158.0703125 325.55078125 C-154.09941435 323.24023037 -150.13256756 320.92290368 -146.16796875 318.6015625 C-139.79434946 314.87369254 -133.39875101 311.1845189 -127 307.5 C-118.54635575 302.63147171 -110.1088635 297.73664892 -101.6875 292.8125 C-93.50762479 288.03126788 -85.30197307 283.29873278 -77.07080078 278.60644531 C-66.76916035 272.73251615 -56.49208374 266.81678739 -46.23339844 260.86816406 C-43.03969344 259.02293372 -39.83692262 257.19427541 -36.6328125 255.3671875 C-34.65073258 254.2244943 -32.66894751 253.08128945 -30.6875 251.9375 C-29.7807251 251.42582275 -28.8739502 250.91414551 -27.93969727 250.38696289 C-19.86887212 245.71169791 -19.86887212 245.71169791 -15.38646317 237.80203915 C-14.89923804 234.26942856 -14.85527974 230.78413726 -14.85955811 227.22596741 C-14.85658698 226.45005373 -14.85361586 225.67414005 -14.8505547 224.87471384 C-14.84189306 222.27852545 -14.84036163 219.68238332 -14.83886719 217.08618164 C-14.83423734 215.22328086 -14.82921245 213.36038103 -14.82382202 211.4974823 C-14.81071491 206.43968594 -14.80425674 201.38190284 -14.79981136 196.32409215 C-14.79687883 193.16428083 -14.79277375 190.00447312 -14.78830719 186.84466362 C-14.77463873 176.95831 -14.76496803 167.07196466 -14.7611053 157.18560225 C-14.75662145 145.77254794 -14.73905565 134.3596132 -14.7101047 122.94659525 C-14.68849993 114.12354126 -14.67840171 105.30052094 -14.67706418 96.47744077 C-14.67601559 91.20784019 -14.67009588 85.93835212 -14.65224457 80.66877937 C-14.63578402 75.7136108 -14.63359858 70.75863959 -14.64238358 65.80345345 C-14.64315494 63.98538688 -14.63879813 62.16730979 -14.62892532 60.34926987 C-14.61623255 57.86628306 -14.62206778 55.38399813 -14.63250732 52.90101624 C-14.62445092 52.18262371 -14.61639452 51.46423118 -14.60809398 50.72406918 C-14.66202068 45.23546145 -15.98041625 41.16383973 -19.75 37.125 C-26.44264263 33.77867869 -31.95280099 37.10748197 -37.75 40.5 Z " fill="#000000" transform="translate(727,625)"/>
<path d="M0 0 C0 54.78 0 109.56 0 166 C-7.92 170.455 -7.92 170.455 -16 175 C-20.10141243 177.48316861 -20.10141243 177.48316861 -24.1796875 180.00390625 C-26 181 -26 181 -28 181 C-28.39755189 159.52977096 -28.69710547 138.06015052 -28.88080692 116.58698463 C-28.96838141 106.61581854 -29.08770612 96.64694209 -29.2824707 86.67724609 C-29.45219945 77.98493359 -29.56165165 69.29427903 -29.59950441 60.60035551 C-29.62162787 55.99808953 -29.67338158 51.40056507 -29.79741096 46.79982376 C-30.52411603 18.78686053 -30.52411603 18.78686053 -26.33790207 12.50640106 C-22.41936035 8.8296412 -18.14567468 6.98221772 -13.00790215 5.59009933 C-10.25313142 4.78050392 -7.97748494 3.40361847 -5.5625 1.875 C-2.25862069 0 -2.25862069 0 0 0 Z " fill="#000000" transform="translate(691,690)"/>
<path d="M0 0 C0 54.78 0 109.56 0 166 C-8.58 170.95 -17.16 175.9 -26 181 C-32.85997932 185.06141271 -32.85997932 185.06141271 -39.70703125 189.14453125 C-42.45424056 190.6924843 -45.07038511 191.87111466 -48 193 C-48.56187141 171.5996339 -48.98443552 150.20049082 -49.24349213 128.79423332 C-49.36700698 118.85330869 -49.5351943 108.91697787 -49.81054688 98.97900391 C-50.05058174 90.31154092 -50.20477282 81.64740366 -50.25812387 72.97670949 C-50.28930118 68.38786241 -50.36187635 63.80852306 -50.53752136 59.22274399 C-51.56400604 31.36846421 -51.56400604 31.36846421 -45.64399338 24.11220169 C-39.95130529 19.39102961 -33.70674527 16.52927793 -26.78623581 14.0464325 C-23.16079379 12.68481754 -20.16176586 10.88496272 -16.9140625 8.7890625 C-16.00785156 8.24765625 -15.10164062 7.70625 -14.16796875 7.1484375 C-12.38530459 6.08048201 -10.60418402 5.00994769 -8.82421875 3.9375 C-7.94636719 3.41414062 -7.06851563 2.89078125 -6.1640625 2.3515625 C-5.40561035 1.89604004 -4.6471582 1.44051758 -3.86572266 0.97119141 C-2 0 -2 0 0 0 Z " fill="#000000" transform="translate(642,718)"/>
<path d="M0 0 C0.56187141 21.4003661 0.98443552 42.79950918 1.24349213 64.20576668 C1.36700698 74.14669131 1.5351943 84.08302213 1.81054688 94.02099609 C2.05058174 102.68845908 2.20477282 111.35259634 2.25812387 120.02329051 C2.28930118 124.61213759 2.36187635 129.19147694 2.53752136 133.77725601 C3.56581002 161.66685848 3.56581002 161.66685848 -2.4057312 168.92342377 C-8.12349645 173.6525633 -14.39765406 176.66449115 -21.37996674 179.08573723 C-23.71226014 179.89959294 -25.82284906 180.84176879 -28 182 C-28.21023539 160.46012821 -28.368946 138.92042554 -28.46630955 117.37973595 C-28.51271888 107.3779712 -28.57599027 97.37684388 -28.67895508 87.37548828 C-28.76865628 78.65832173 -28.82672271 69.94161677 -28.84679645 61.22400153 C-28.85853126 56.60772094 -28.8861074 51.99276085 -28.95157051 47.37690353 C-29.01270232 43.03120634 -29.03149753 38.68737204 -29.01796913 34.34128571 C-29.02044348 32.74727116 -29.03832712 31.15319383 -29.07284927 29.55955124 C-29.32114303 17.50544723 -29.32114303 17.50544723 -26.02113914 13.74508095 C-23.72912733 12.19098915 -21.55231989 11.05821423 -19 10 C-17.68418945 9.20843506 -17.68418945 9.20843506 -16.34179688 8.40087891 C-15.64119141 8.01335449 -14.94058594 7.62583008 -14.21875 7.2265625 C-13.44015625 6.79472656 -12.6615625 6.36289062 -11.859375 5.91796875 C-11.08078125 5.49128906 -10.3021875 5.06460938 -9.5 4.625 C-8.69046875 4.17511719 -7.8809375 3.72523438 -7.046875 3.26171875 C-1.1381079 0 -1.1381079 0 0 0 Z " fill="#000000" transform="translate(573,758)"/>
</svg>
